             <svg xmlns="http://www.w3.org/2000/svg" viewBox="0 0 399 288" fill="url(#ankorMark)" role="img" aria-label="АНКОР ПЛЮС">
  <!-- Эмблема из исходника Group 463.svg. Внутренняя правая грань «А» очищена
       от шума трассировки: вместо десятков дрожащих точек — одна прямая (L216 42).
       Заливка — сквозной линейный градиент (userSpaceOnUse — один на весь знак). -->
  <defs>
    <linearGradient id="ankorMark" gradientUnits="userSpaceOnUse" x1="70" y1="250" x2="320" y2="20">
      <stop offset="0" stop-color="#13243f"/>
      <stop offset="0.55" stop-color="#234c82"/>
      <stop offset="1" stop-color="#3a64a0"/>
    </linearGradient>
  </defs>
  <path d="M178.667 17.7333C172.533 27.4667 155.867 52.6667 141.867 74C88.2667 155.067 48.1334 216.667 48.5334 216.933C48.8 217.2 53.7334 215.333 59.6 212.8C73.7334 206.8 100.267 198.267 116 194.8L128.8 191.867L145.333 166.267C154.4 152.133 166.133 134 171.333 126C176.533 117.867 182 109.333 183.467 106.933L186.133 102.667L205.333 135.6C215.867 153.867 224.533 168.8 224.667 168.933C224.667 169.067 231.067 168.4 238.8 167.333C246.4 166.267 261.2 164.933 271.467 164.4L290.267 163.333L216 42C214.8 39.7333 209.867 31.3333 205.067 23.3333C200.267 15.2 195.333 6.66668 194.133 4.26668C192.933 2.00001 191.467 0 190.933 0C190.4 0.133331 184.933 8 178.667 17.7333Z"/>
  <path d="M268 180.133C204.4 184.666 141.6 200.266 93.6 223.333C70.5333 234.533 56.2667 242.8 38.4 255.6C22 267.333 0 285.6 0 287.333C0 287.733 22 288 49.0667 288H98L108.667 277.866C131.467 256 161.867 236 192.133 222.666C238.667 202.133 306.267 188.533 381.733 184.533C391.067 184.133 398.667 183.466 398.4 183.333C398.133 183.066 387.067 182 373.733 180.8C348 178.533 295.2 178.266 268 180.133Z"/>
  <path d="M293.333 211.866C282 214.533 269.333 217.866 265.333 219.2C253.067 223.2 229.333 233.466 229.333 234.8C229.333 235.466 233.867 236 239.333 236C248.267 236 249.333 236.266 250.8 238.933C251.6 240.666 258.4 252.4 265.733 265.066L279.067 288H321.467C348.8 287.866 364 287.333 364 286.533C364 285.866 359.6 278.133 354.267 269.6C348.8 261.066 338 243.333 330.133 230.266C322.267 217.333 315.333 206.666 314.933 206.8C314.4 206.8 304.667 209.066 293.333 211.866Z"/>
</svg>
