<svg xmlns="http://www.w3.org/2000/svg" viewBox="0 0 860 430" role="img" aria-label="Схема направлений: Россия, Казахстан, страны СНГ, морские порты, Китай и страны Азии">
  <!-- ЗАГЛУШКА карты (русская версия). Замените на реальную карту-иллюстрацию. -->
  <defs>
    <linearGradient id="route" x1="0" y1="0" x2="1" y2="0">
      <stop offset="0" stop-color="#2b5a9e"/>
      <stop offset="1" stop-color="#3d6fb5"/>
    </linearGradient>
    <pattern id="dots" width="26" height="26" patternUnits="userSpaceOnUse">
      <circle cx="2" cy="2" r="1.6" fill="#d6e2f1"/>
    </pattern>
  </defs>

  <rect width="860" height="430" rx="14" fill="#f3f7fc"/>
  <rect width="860" height="430" rx="14" fill="url(#dots)"/>

  <!-- линии маршрутов: основное ж/д плечо, морская ветка и ветка в СНГ -->
  <g fill="none" stroke="url(#route)" stroke-width="3.5" stroke-linecap="round" stroke-dasharray="2 13">
    <path d="M115 175 C210 215 300 240 390 245 C510 252 650 240 750 215"/>
    <path d="M115 175 C200 120 330 92 470 90 C590 88 690 150 750 215"/>
    <path d="M115 175 C140 240 185 305 250 345"/>
  </g>

  <!-- маркеры видов транспорта на сегментах -->
  <g font-family="Segoe UI, Arial, sans-serif" font-size="13" font-weight="700" fill="#2b5a9e" text-anchor="middle">
    <g><rect x="213" y="205" width="54" height="26" rx="13" fill="#fff" stroke="#cdddf0"/><text x="240" y="222">авто</text></g>
    <g><rect x="546" y="234" width="48" height="26" rx="13" fill="#fff" stroke="#cdddf0"/><text x="570" y="251">ж/д</text></g>
    <g><rect x="610" y="99" width="60" height="26" rx="13" fill="#fff" stroke="#cdddf0"/><text x="640" y="116">море</text></g>
  </g>

  <!-- узлы направлений -->
  <g font-family="Segoe UI, Arial, sans-serif" font-size="16" font-weight="800" fill="#14284a" text-anchor="middle">
    <g>
      <circle cx="115" cy="175" r="16" fill="none" stroke="#2b5a9e" stroke-width="2" opacity=".4"/>
      <circle cx="115" cy="175" r="9" fill="#2b5a9e"/>
      <text x="115" y="147">Россия</text>
    </g>
    <g>
      <circle cx="390" cy="245" r="16" fill="none" stroke="#2b5a9e" stroke-width="2" opacity=".4"/>
      <circle cx="390" cy="245" r="9" fill="#2b5a9e"/>
      <text x="390" y="283">Казахстан</text>
    </g>
    <g>
      <circle cx="250" cy="345" r="16" fill="none" stroke="#2b5a9e" stroke-width="2" opacity=".4"/>
      <circle cx="250" cy="345" r="9" fill="#2b5a9e"/>
      <text x="250" y="383">Страны СНГ</text>
    </g>
    <g>
      <circle cx="470" cy="90" r="16" fill="none" stroke="#2b5a9e" stroke-width="2" opacity=".4"/>
      <circle cx="470" cy="90" r="9" fill="#2b5a9e"/>
      <text x="470" y="62">Морской порт</text>
    </g>
    <g>
      <circle cx="750" cy="215" r="16" fill="none" stroke="#3d6fb5" stroke-width="2" opacity=".4"/>
      <circle cx="750" cy="215" r="9" fill="#3d6fb5"/>
      <text x="745" y="253">Китай и страны Азии</text>
    </g>
  </g>

  <text x="40" y="50" font-family="Segoe UI, Arial, sans-serif" font-size="15" font-weight="700" fill="#5d6e88">Основные направления перевозок</text>
</svg>
