<svg xmlns="http://www.w3.org/2000/svg" viewBox="0 0 1600 830" role="img" aria-label="Shipping routes map: Russia, Kazakhstan, CIS countries, China and Asian countries, sea ports">
  <defs>
    <linearGradient id="route" x1="0" y1="0" x2="1" y2="0">
      <stop offset="0" stop-color="#2b5a9e"/>
      <stop offset="1" stop-color="#3d6fb5"/>
    </linearGradient>
  </defs>

  <!-- суша: фон + страны присутствия -->
  <g fill="#e1eaf5" fill-rule="evenodd" stroke="#fff" stroke-width="1.2" stroke-linejoin="round"><path d="M315.1 921.1L308.1 911.3L307.9 868.1L318.3 854.7L321.5 850.9L329.1 850.7L339.7 842.4L355.1 841.8L388.6 806.3L396.9 796.4L402.2 789.1L402.2 782.9L402.2 770.9L402.3 766.0L402.3 765.8L402.3 765.8L406.1 765.6L411.6 763.9L417.9 762.7L423.5 758.6L428.0 758.6L428.3 761.8L427.2 768.7L427.2 775.0L424.7 779.3L421.4 792.1L415.7 805.3L408.3 820.5L398.2 837.8L388.0 851.1L374.1 867.3L362.2 876.9L344.5 888.7L333.5 897.7L320.5 912.0L317.8 918.3L315.1 921.1Z"/><path d="M113.4 803.6L104.4 798.4L100.3 795.0L99.5 791.3L101.4 786.4L101.4 781.5L94.5 774.1L93.2 769.0L93.3 766.2L89.0 762.7L88.9 755.8L86.4 751.2L82.2 751.9L83.4 747.5L86.5 742.6L85.1 737.7L89.0 734.0L86.6 731.3L89.7 723.9L95.1 715.2L105.3 716.0L104.7 669.0L104.9 664.0L118.5 664.0L118.5 640.3L166.2 640.3L212.1 640.3L259.2 640.3L263.0 651.9L260.4 654.1L262.1 666.3L266.5 680.4L271.0 683.4L277.5 687.7L271.5 694.5L262.7 696.5L259.0 700.1L257.8 708.0L252.7 725.4L254.0 730.1L252.1 740.3L247.3 752.0L240.1 757.9L235.0 766.9L233.9 771.8L228.2 775.1L224.7 787.5L224.9 798.2L224.8 788.9L223.1 788.7L223.3 782.8L221.9 778.7L215.8 774.0L214.4 765.5L215.8 756.7L210.3 755.9L209.5 758.6L202.4 759.2L205.2 762.6L206.2 769.8L199.7 776.3L193.8 784.8L187.7 786.0L177.7 779.1L173.3 781.6L172.0 785.0L165.9 787.3L165.5 789.7L153.7 789.7L152.1 787.3L143.6 786.9L139.3 788.9L136.0 787.9L129.9 781.0L127.9 777.7L119.3 779.3L116.1 784.8L113.0 795.4L109.0 797.6L105.3 798.9L113.4 803.6Z"/><path d="M104.7 669.0L105.3 716.0L95.1 715.2L89.7 723.9L86.6 731.3L89.0 734.0L85.1 737.7L86.5 742.6L83.4 747.5L82.2 751.9L86.4 751.2L88.9 755.8L89.0 762.7L93.3 766.2L93.2 769.0L85.7 771.0L79.7 775.8L71.1 788.8L60.0 794.3L48.5 793.5L45.2 794.6L46.4 798.8L40.2 803.0L35.1 807.6L20.2 812.1L17.3 809.4L15.3 809.2L13.1 812.2L3.3 813.1L5.2 809.9L1.4 801.8L-0.2 796.8L-5.4 794.8L-12.4 787.9L-9.8 782.3L-4.4 783.5L-1.1 782.7L5.5 782.8L-0.9 772.0L-0.5 764.1L-1.3 756.3L-6.0 748.7L-4.8 743.1L-12.4 742.8L-12.4 735.2L-17.3 730.8L-12.2 715.2L2.9 704.0L3.6 688.6L8.1 664.5L10.7 659.4L5.8 655.3L5.6 651.6L1.1 648.5L-1.8 630.1L10.2 623.6L57.5 646.3L104.7 669.0Z"/><path d="M190.8 76.4L170.7 81.1L161.1 82.2L166.1 73.9L150.9 69.2L132.5 73.2L126.7 81.9L115.4 87.2L102.7 84.3L87.2 84.9L74.0 78.6L66.9 81.7L59.6 82.2L57.8 90.0L35.5 88.1L32.3 94.7L21.0 94.7L13.1 103.1L1.3 116.3L-17.1 133.0L-12.8 137.0L-16.9 141.7L-28.7 141.5L-36.4 152.6L-35.6 168.4L-28.1 174.4L-32.0 188.3L-41.9 196.4L-47.1 203.3L-55.0 196.0L-78.4 209.7L-94.2 212.5L-110.6 206.5L-114.9 193.7L-118.6 166.3L-107.7 158.7L-76.4 148.8L-53.0 136.5L-31.3 120.0L-2.8 97.1L17.0 88.2L49.6 73.3L75.6 68.1L95.1 68.7L113.1 58.9L134.8 59.4L156.0 57.1L193.1 65.8L177.8 68.9L190.8 76.4Z"/><path d="M-1.8 630.1L1.1 648.5L5.6 651.6L5.8 655.3L10.7 659.4L8.1 664.5L3.6 688.6L2.9 704.0L-12.2 715.2L-17.3 730.8L-12.4 735.2L-12.4 742.8L-4.8 743.1L-6.0 748.7L-9.3 749.3L-9.7 753.1L-11.9 753.4L-19.9 740.4L-22.7 739.9L-32.0 746.6L-41.2 743.1L-47.5 742.4L-51.0 744.1L-57.9 743.7L-64.9 748.8L-70.9 749.1L-85.3 742.9L-90.9 745.8L-96.9 745.6L-101.4 741.2L-113.3 736.7L-126.0 738.1L-129.1 740.7L-130.8 747.5L-134.2 752.3L-135.0 762.9L-144.0 756.1L-148.3 756.1L-152.2 759.6L-152.0 751.4L-165.6 748.8L-166.0 743.0L-172.7 735.3L-174.3 729.9L-173.3 724.1L-165.7 723.7L-161.4 719.4L-145.2 718.4L-134.7 716.5L-133.6 709.2L-127.2 701.3L-127.2 674.0L-110.5 668.7L-76.2 645.4L-35.6 622.8L-16.8 627.9L-10.1 634.5L-1.8 630.1Z"/><path d="M-6.0 748.7L-1.3 756.3L-0.5 764.1L-0.9 772.0L5.5 782.8L-1.1 782.7L-4.4 783.5L-9.8 782.3L-12.4 787.9L-5.4 794.8L-0.2 796.8L1.4 801.8L5.2 809.9L3.3 813.1L-2.6 825.2L-5.5 827.3L-6.4 836.5L-5.2 841.5L-6.2 845.0L-0.6 851.2L0.4 855.5L4.8 861.6L10.2 865.4L10.8 870.8L12.0 874.3L11.2 880.7L1.7 877.9L-7.8 874.7L-22.8 874.3L-24.3 873.6L-31.3 875.1L-38.5 873.6L-44.1 874.3L-63.4 874.1L-61.7 864.7L-66.3 856.9L-71.7 854.9L-74.1 849.5L-77.2 847.8L-77.0 844.6L-74.0 836.2L-68.3 824.7L-64.9 824.6L-57.9 817.7L-53.4 817.5L-46.7 822.4L-38.6 818.4L-37.5 813.4L-34.8 808.7L-33.0 802.7L-26.6 797.8L-24.2 789.5L-21.7 786.8L-20.0 780.7L-16.9 773.1L-6.9 763.9L-6.3 760.0L-5.0 757.8L-9.7 753.1L-9.3 749.3L-6.0 748.7Z"/><path d="M146.7 839.1L142.7 840.3L135.1 840.1L126.2 838.8L121.8 839.8L120.0 842.7L116.2 843.1L111.5 840.6L98.3 846.5L92.9 845.3L91.3 846.2L87.8 853.4L78.9 851.1L70.3 849.9L62.7 845.5L53.0 841.5L46.6 845.3L42.0 851.3L40.9 859.6L33.3 858.9L25.3 856.9L18.2 863.2L12.0 874.3L10.8 870.8L10.2 865.4L4.8 861.6L0.4 855.5L-0.6 851.2L-6.2 845.0L-5.2 841.5L-6.4 836.5L-5.5 827.3L-2.6 825.2L3.3 813.1L13.1 812.2L15.3 809.2L17.3 809.4L20.2 812.1L35.1 807.6L40.2 803.0L46.4 798.8L45.2 794.6L48.5 793.5L60.0 794.3L71.1 788.8L79.7 775.8L85.7 771.0L93.2 769.0L94.5 774.1L101.4 781.5L101.4 786.4L99.5 791.3L100.3 795.0L104.4 798.4L113.4 803.6L119.9 808.4L120.0 812.2L128.0 818.4L132.9 823.5L135.9 830.6L144.8 835.3L146.7 839.1Z"/><path d="M245.6 513.3L243.5 517.0L239.2 515.4L236.7 523.3L239.7 524.6L236.7 526.3L236.2 529.4L241.7 527.8L242.0 532.4L236.1 551.3L234.9 548.3L228.3 531.0L228.3 531.0L228.3 531.0L231.8 527.1L231.0 526.4L234.1 520.8L236.5 511.9L238.2 508.9L238.5 508.8L242.5 508.8L243.6 506.7L246.8 506.6L246.9 511.4L245.3 513.2L245.6 513.3Z"/><path d="M246.8 506.6L243.6 506.7L242.5 508.8L238.5 508.8L242.8 499.1L248.6 490.8L248.9 490.4L254.2 491.0L256.1 495.6L249.7 500.1L246.8 506.6Z"/><path d="M241.7 527.8L236.2 529.4L236.7 526.3L239.7 524.6L236.7 523.3L239.2 515.4L243.5 517.0L243.5 524.3L241.7 527.8Z"/><path d="M243.5 517.0L245.6 513.3L258.8 518.0L282.0 505.4L286.8 519.8L284.5 521.6L260.8 527.5L272.6 539.4L268.7 541.4L266.7 545.4L257.7 547.0L254.8 551.3L249.7 554.9L236.5 553.1L236.1 551.3L242.0 532.4L241.7 527.8L243.5 524.3L243.5 517.0Z"/><path d="M433.5 613.7L435.6 613.1L436.1 616.3L445.4 614.5L455.2 614.8L462.3 615.1L470.4 607.1L479.3 599.5L486.8 592.2L489.0 596.2L490.6 605.6L484.6 605.7L483.6 613.4L485.7 615.0L480.3 617.4L480.3 622.2L476.9 627.1L476.5 631.9L474.2 634.4L438.5 628.4L434.0 616.4L433.5 613.7Z"/><path d="M424.4 607.6L423.6 599.0L426.8 592.8L430.1 591.5L433.6 595.2L433.9 602.2L431.3 609.1L428.0 610.0L424.4 607.6Z"/><path d="M390.8 545.7L393.3 550.9L392.2 553.7L396.0 562.6L387.7 562.9L384.7 557.3L374.1 556.1L382.8 544.7L390.8 545.7Z"/><path d="M286.8 519.8L282.0 505.4L308.2 493.0L312.7 478.7L311.6 470.0L318.1 467.1L324.1 459.7L329.2 457.9L343.0 459.4L347.2 462.4L352.9 460.4L360.5 474.6L368.3 478.1L369.2 485.0L363.2 489.1L360.5 498.4L368.7 509.7L383.2 516.2L389.3 525.2L387.4 533.8L391.2 533.7L391.3 540.1L397.8 546.3L390.8 545.7L382.8 544.7L374.1 556.1L352.1 555.2L318.7 531.3L301.0 523.0L286.8 519.8Z"/><path d="M476.5 631.9L476.9 627.1L480.3 622.2L480.3 617.4L485.7 615.0L483.6 613.4L484.6 605.7L490.6 605.6L495.9 613.7L502.6 618.0L511.3 619.6L518.3 621.7L523.6 628.5L526.8 632.5L531.1 634.0L531.0 636.6L526.7 643.7L524.8 647.0L519.8 650.8L515.4 658.9L510.0 658.3L507.6 661.1L505.7 667.1L507.1 675.1L506.0 676.5L500.6 676.5L493.2 680.9L492.0 686.7L489.3 689.2L481.9 689.1L477.3 692.1L477.3 696.9L471.6 700.2L465.1 699.0L457.1 703.0L451.7 703.7L447.8 695.4L438.5 675.9L474.1 664.0L482.0 640.3L476.5 631.9Z"/><path d="M489.0 596.2L486.8 592.2L490.2 588.2L491.7 589.2L490.6 594.1L489.0 596.2Z"/><path d="M1038.0 756.6L1035.2 742.3L1042.8 732.5L1058.2 730.2L1069.3 731.9L1079.0 736.6L1084.4 728.4L1094.9 732.7L1097.7 740.7L1096.2 754.9L1076.3 764.0L1081.5 771.2L1069.0 772.0L1058.8 776.8L1048.9 775.1L1044.0 768.9L1038.0 756.6Z"/><path d="M1069.3 731.9L1058.2 730.2L1042.8 732.5L1035.2 742.3L1038.0 756.6L1027.4 751.2L1017.3 751.4L1019.0 742.1L1008.6 742.2L1007.6 755.2L1001.2 772.5L997.4 783.0L998.2 791.6L1005.9 792.0L1010.7 802.8L1012.9 813.0L1019.5 819.8L1026.6 821.2L1032.8 827.4L1028.9 832.2L1021.1 833.7L1020.2 827.6L1010.5 822.4L1008.4 824.5L1003.7 819.9L1001.7 814.1L995.4 807.4L989.7 801.8L987.7 808.7L985.5 802.1L986.8 794.7L990.3 783.4L996.0 771.2L1002.5 760.1L997.9 749.3L998.1 743.8L996.7 737.2L988.8 727.8L986.0 721.8L990.1 719.6L994.4 709.3L989.6 701.5L982.0 692.8L976.3 682.4L981.3 680.3L986.7 667.5L995.1 666.9L1002.0 661.8L1008.8 659.0L1013.9 662.7L1014.6 669.8L1022.6 670.4L1019.7 682.9L1020.0 693.5L1032.5 686.4L1036.0 688.5L1042.9 688.2L1045.3 684.0L1054.3 684.9L1063.3 694.5L1064.1 706.2L1073.6 716.5L1073.1 726.6L1069.3 731.9Z"/><path d="M1094.9 732.7L1084.4 728.4L1079.0 736.6L1069.3 731.9L1073.1 726.6L1073.6 716.5L1064.1 706.2L1063.3 694.5L1054.3 684.9L1045.3 684.0L1042.9 688.2L1036.0 688.5L1032.5 686.4L1020.0 693.5L1019.7 682.9L1022.6 670.4L1014.6 669.8L1013.9 662.7L1008.8 659.0L1011.3 654.7L1021.4 647.0L1022.5 649.8L1028.8 650.1L1027.0 636.5L1033.1 634.8L1040.1 644.1L1045.4 654.9L1060.0 655.0L1064.6 665.3L1057.0 668.5L1053.6 672.7L1067.8 679.8L1077.6 693.8L1085.1 704.3L1094.1 712.5L1097.1 720.9L1094.9 732.7Z"/><path d="M1008.8 659.0L1002.0 661.8L995.1 666.9L986.7 667.5L981.3 680.3L976.3 682.4L982.0 692.8L989.6 701.5L994.4 709.3L990.1 719.6L986.0 721.8L988.8 727.8L996.7 737.2L998.1 743.8L997.9 749.3L1002.5 760.1L996.0 771.2L990.3 783.4L989.1 774.6L992.8 765.5L988.8 758.5L989.7 745.5L984.9 739.4L981.1 725.2L978.9 710.2L973.8 700.4L966.0 706.4L952.5 714.8L945.9 713.8L938.5 711.0L942.6 696.3L940.1 685.2L930.9 671.5L932.3 667.2L925.4 665.7L917.0 656.0L916.2 646.5L920.3 648.3L920.6 639.8L926.4 637.0L925.2 631.9L927.8 627.9L928.3 615.6L937.6 618.3L942.8 608.6L943.4 602.8L950.0 592.8L949.6 586.1L965.0 577.9L973.4 580.0L972.5 572.7L976.6 570.5L975.7 566.0L982.7 565.2L986.6 572.1L991.8 575.0L992.1 584.0L991.7 593.8L980.4 603.7L979.0 617.8L991.5 615.8L994.4 626.7L1001.9 629.0L998.4 638.9L1007.2 643.3L1012.3 645.5L1021.0 642.1L1021.4 647.0L1011.3 654.7L1008.8 659.0Z"/><path d="M1058.8 776.8L1069.0 772.0L1081.5 771.2L1076.3 764.0L1096.2 754.9L1097.7 740.7L1094.9 732.7L1097.1 720.9L1094.1 712.5L1085.1 704.3L1077.6 693.8L1067.8 679.8L1053.6 672.7L1057.0 668.5L1064.6 665.3L1060.0 655.0L1045.4 654.9L1040.1 644.1L1033.1 634.8L1039.5 631.9L1048.9 631.9L1060.5 630.6L1070.6 624.3L1076.3 628.7L1087.1 630.9L1085.2 637.7L1090.9 642.5L1102.8 645.6L1087.0 655.7L1077.1 666.9L1074.5 675.2L1083.6 687.7L1094.7 703.2L1105.4 710.5L1112.6 720.0L1118.0 741.9L1116.4 762.8L1106.6 770.6L1093.0 778.2L1083.3 788.1L1068.5 799.2L1064.2 791.6L1067.6 783.5L1058.8 776.8Z"/><path d="M1372.2 400.5L1372.2 400.5L1372.2 400.5L1372.2 400.5Z"/><path d="M1370.5 398.5L1370.5 398.5L1372.2 400.5L1367.7 399.8L1362.6 403.8L1359.0 407.9L1359.5 416.4L1353.3 419.0L1351.2 421.1L1346.8 424.6L1338.9 426.6L1333.7 429.7L1333.4 434.9L1332.0 436.2L1336.7 438.1L1343.4 443.3L1341.7 446.2L1336.7 447.0L1328.3 447.5L1323.7 452.9L1318.4 452.5L1317.6 453.5L1311.9 451.3L1310.4 453.5L1307.0 454.5L1306.5 452.3L1303.5 451.2L1300.3 449.3L1303.5 444.1L1306.3 442.7L1305.3 440.5L1308.3 434.1L1307.5 432.2L1300.6 430.9L1295.0 427.7L1304.7 420.1L1317.7 413.7L1325.9 405.3L1331.5 409.0L1341.7 409.5L1339.9 403.2L1358.2 398.1L1362.9 391.5L1370.5 398.5Z"/><path d="M1317.6 453.5L1318.4 452.5L1323.7 452.9L1328.3 447.5L1336.7 447.0L1341.7 446.2L1343.4 443.3L1353.6 457.3L1356.6 465.0L1356.7 478.6L1352.2 485.2L1341.5 487.4L1332.0 492.4L1321.3 493.4L1320.0 486.9L1322.2 478.0L1316.9 465.7L1325.7 463.7L1317.6 453.5Z"/><path d="M862.2 316.6L874.7 314.6L897.3 304.4L915.4 298.8L925.7 302.4L938.0 302.6L946.0 308.1L957.8 308.6L974.9 311.5L986.5 303.3L981.6 296.3L993.9 284.0L1007.2 288.9L1017.9 290.3L1031.9 293.3L1034.1 302.2L1051.0 307.2L1062.2 305.0L1077.2 303.5L1089.1 305.0L1100.7 310.7L1107.9 316.8L1118.8 316.7L1133.8 318.6L1144.7 315.7L1160.3 313.7L1177.6 305.3L1184.7 306.6L1190.9 310.6L1205.1 309.6L1199.3 318.5L1190.9 330.4L1194.0 335.2L1200.7 333.7L1212.4 335.6L1221.5 331.2L1231.0 335.0L1241.8 343.3L1240.5 347.5L1231.1 346.2L1213.9 347.7L1205.5 351.1L1196.9 358.9L1178.8 363.5L1167.0 369.8L1154.8 367.4L1148.1 366.4L1141.9 374.0L1145.7 378.6L1147.6 382.5L1139.3 386.5L1130.8 392.8L1117.0 397.0L1099.2 397.4L1080.1 401.6L1066.3 407.9L1061.0 404.2L1046.7 404.2L1029.1 397.0L1017.4 395.3L1001.7 396.9L977.2 394.3L964.1 394.5L957.2 387.5L951.8 376.6L944.5 375.3L930.1 367.9L914.2 366.2L900.1 364.2L895.8 359.0L900.4 345.2L892.2 335.6L875.3 331.2L865.3 324.9L862.2 316.6Z"/><path d="M975.7 566.0L976.6 570.5L972.5 572.7L973.4 580.0L965.0 577.9L949.6 586.1L950.0 592.8L943.4 602.8L942.8 608.6L937.6 618.3L928.3 615.6L927.8 627.9L925.2 631.9L926.4 637.0L920.6 639.8L914.3 621.0L911.1 621.0L909.1 628.6L902.6 622.5L906.3 615.7L911.6 615.0L917.1 605.0L910.2 603.0L899.2 603.1L887.9 601.5L886.9 593.3L881.2 592.7L871.9 587.6L867.7 595.6L876.2 601.9L868.8 606.3L866.2 610.6L873.5 613.8L871.5 620.9L875.6 629.9L877.4 639.6L875.7 644.0L867.7 643.8L853.0 646.3L853.7 655.2L847.4 662.2L830.3 670.2L817.1 684.1L808.2 691.6L796.4 699.4L796.3 704.8L790.4 707.8L779.8 712.0L774.2 712.6L770.7 721.7L773.1 737.1L773.8 746.9L768.7 758.2L768.7 778.3L762.6 778.9L757.2 788.0L760.8 791.9L750.0 795.2L746.0 803.3L741.2 806.7L730.0 795.6L724.5 779.0L720.0 767.1L715.8 761.5L709.5 750.1L706.6 735.2L704.5 727.8L693.7 711.5L688.8 688.6L685.3 673.4L685.3 659.0L683.0 647.9L665.8 655.0L657.4 653.6L641.9 639.2L647.6 634.9L644.1 630.3L630.2 620.2L638.1 612.3L664.2 612.3L661.9 602.2L655.2 596.2L653.9 587.0L646.1 581.7L659.2 569.3L672.9 570.2L685.3 557.7L692.7 545.7L704.3 533.8L704.1 525.4L714.2 518.5L704.6 512.6L700.5 504.6L696.3 494.2L702.1 489.1L720.1 492.0L733.3 490.3L744.7 480.3L757.5 494.2L756.3 503.9L761.0 509.9L760.6 516.0L752.1 514.4L755.4 527.5L767.1 535.0L783.5 543.3L776.0 548.6L771.4 559.7L782.9 564.2L794.1 570.0L809.5 576.7L825.8 578.2L832.6 584.2L841.8 585.4L856.0 588.1L865.9 587.9L867.3 583.2L865.7 575.7L866.6 570.6L873.8 568.1L874.8 577.5L875.1 579.8L885.9 584.3L893.3 582.5L903.3 583.3L913.0 582.9L913.8 575.6L909.0 571.8L918.6 570.4L929.3 561.5L943.0 554.0L952.9 556.9L961.4 551.9L967.0 559.3L962.9 564.3L975.7 566.0Z"/><path d="M920.6 639.8L920.3 648.3L916.2 646.5L917.0 656.0L913.6 649.9L912.9 643.8L910.6 638.1L905.7 631.2L894.8 630.7L895.8 635.6L892.1 642.2L887.1 639.8L885.4 642.0L882.0 640.7L877.4 639.6L875.6 629.9L871.5 620.9L873.5 613.8L866.2 610.6L868.8 606.3L876.2 601.9L867.7 595.6L871.9 587.6L881.2 592.7L886.9 593.3L887.9 601.5L899.2 603.1L910.2 603.0L917.1 605.0L911.6 615.0L906.3 615.7L902.6 622.5L909.1 628.6L911.1 621.0L914.3 621.0L920.6 639.8Z"/><path d="M909.0 571.8L913.8 575.6L913.0 582.9L903.3 583.3L893.3 582.5L885.9 584.3L875.1 579.8L874.8 577.5L882.7 568.6L889.1 565.6L897.5 568.4L903.8 568.7L909.0 571.8Z"/><path d="M866.6 570.6L865.7 575.7L867.3 583.2L865.9 587.9L856.0 588.1L841.8 585.4L832.6 584.2L825.8 578.2L809.5 576.7L794.1 570.0L782.9 564.2L771.4 559.7L776.0 548.6L783.5 543.3L788.5 540.4L798.0 544.1L809.9 551.8L816.6 553.5L820.6 559.2L829.8 561.5L839.4 566.7L852.8 569.4L866.6 570.6Z"/><path d="M744.7 480.3L733.3 490.3L720.1 492.0L702.1 489.1L696.3 494.2L700.5 504.6L704.6 512.6L714.2 518.5L704.1 525.4L704.3 533.8L692.7 545.7L685.3 557.7L672.9 570.2L659.2 569.3L646.1 581.7L653.9 587.0L655.2 596.2L661.9 602.2L664.2 612.3L638.1 612.3L630.2 620.2L621.6 617.2L618.0 608.7L608.9 599.7L587.0 601.9L567.8 602.1L551.1 603.8L555.5 590.0L572.6 583.9L571.7 578.4L566.0 576.5L565.7 566.1L554.3 560.9L549.6 553.7L543.7 547.5L563.6 553.5L575.4 551.7L582.5 553.2L584.9 550.6L593.1 551.7L608.6 546.8L609.0 536.7L615.6 530.0L624.4 530.0L625.7 526.7L634.7 525.1L639.1 526.2L643.8 522.9L643.1 515.8L648.1 508.6L655.7 505.6L651.0 497.8L662.3 498.1L665.6 493.9L665.1 489.3L671.0 484.3L669.6 478.4L666.8 473.4L673.7 468.2L686.5 465.7L700.1 464.4L706.1 462.2L713.0 460.9L721.7 466.4L725.2 475.5L744.7 480.3Z"/><path d="M610.6 458.1L617.2 458.2L626.1 460.7L629.8 462.2L638.3 458.3L642.3 460.6L646.1 455.2L653.2 455.5L655.1 453.7L656.3 448.9L661.4 444.8L667.8 447.5L666.5 451.1L670.1 451.7L669.0 461.7L673.7 465.5L677.8 463.0L683.1 461.9L690.5 456.6L698.7 457.4L710.9 457.4L713.0 460.9L706.1 462.2L700.1 464.4L686.5 465.7L673.7 468.2L666.8 473.4L669.6 478.4L671.0 484.3L665.1 489.3L665.6 493.9L662.3 498.1L651.0 497.8L655.7 505.6L648.1 508.6L643.1 515.8L643.8 522.9L639.1 526.2L634.7 525.1L625.7 526.7L624.4 530.0L615.6 530.0L609.0 536.7L608.6 546.8L593.1 551.7L584.9 550.6L582.5 553.2L575.4 551.7L563.6 553.5L543.7 547.5L554.4 536.7L553.5 529.1L544.5 527.1L543.6 519.5L539.7 510.1L544.8 503.6L539.6 501.8L542.9 493.2L547.7 478.4L559.8 482.9L568.7 481.4L571.2 476.0L580.5 474.2L587.2 470.6L589.6 461.1L599.6 458.8L601.4 454.6L607.0 457.8L610.6 458.1Z"/><path d="M397.8 546.3L391.3 540.1L391.2 533.7L387.4 533.8L389.3 525.2L383.2 516.2L368.7 509.7L360.5 498.4L363.2 489.1L369.2 485.0L368.3 478.1L360.5 474.6L352.9 460.4L352.9 460.4L346.4 450.9L348.7 447.2L345.0 433.6L353.1 430.3L355.0 434.7L361.0 440.2L369.1 441.8L373.4 441.4L387.4 432.7L391.8 431.8L395.3 435.3L391.2 441.2L398.6 447.4L401.6 446.8L405.3 455.5L416.6 458.0L424.8 463.9L441.6 466.0L460.2 462.8L461.3 460.1L471.7 457.8L480.1 451.0L488.1 451.3L493.3 449.1L501.7 450.2L514.8 456.2L524.3 457.5L537.8 468.0L546.6 468.5L547.7 478.4L542.9 493.2L539.6 501.8L544.8 503.6L539.7 510.1L543.6 519.5L544.5 527.1L553.5 529.1L554.4 536.7L543.7 547.5L549.6 553.7L554.3 560.9L565.7 566.1L566.0 576.5L571.7 578.4L572.6 583.9L555.5 590.0L551.1 603.8L528.8 600.2L515.9 597.5L502.5 595.9L497.4 581.4L491.8 579.3L482.7 581.4L470.7 587.2L456.2 583.2L444.3 574.1L432.8 570.7L424.9 559.5L416.2 543.7L409.8 545.6L402.3 541.7L397.8 546.3Z"/><path d="M245.6 513.3L245.3 513.2L246.9 511.4L246.8 506.6L249.7 500.1L256.1 495.6L254.2 491.0L248.9 490.4L247.8 481.3L250.7 476.4L253.8 473.8L257.0 471.2L257.7 464.6L261.5 466.9L274.6 463.6L280.9 465.8L290.6 465.8L304.3 461.3L310.7 461.5L324.1 459.7L318.1 467.1L311.6 470.0L312.7 478.7L308.2 493.0L282.0 505.4L258.8 518.0L245.6 513.3Z"/><path d="M-47.1 203.3L-41.9 196.4L-32.0 188.3L-28.1 174.4L-35.6 168.4L-36.4 152.6L-28.7 141.5L-16.9 141.7L-12.8 137.0L-17.1 133.0L1.3 116.3L13.1 103.1L21.0 94.7L32.3 94.7L35.5 88.1L57.8 90.0L59.6 82.2L66.9 81.7L82.7 87.5L101.2 95.6L101.5 113.9L105.5 118.5L85.1 121.8L73.6 130.1L75.5 137.4L56.6 146.9L33.8 157.1L25.1 173.8L33.6 182.2L44.9 188.7L34.0 202.1L21.7 204.9L17.2 224.8L10.4 235.9L-4.0 234.8L-10.7 244.2L-24.4 244.7L-28.1 233.5L-38.1 220.0L-47.1 203.3Z"/><path d="M198.9 283.4L203.4 283.8L206.4 281.1L210.0 281.7L222.3 280.6L229.8 287.3L226.9 289.7L227.8 293.4L237.3 294.0L241.5 299.1L241.3 301.4L256.3 305.6L265.4 303.7L272.7 309.3L279.6 309.2L297.1 313.0L297.3 316.5L292.4 322.7L295.1 329.2L293.2 333.2L281.7 334.1L275.6 337.4L275.2 342.6L265.8 343.6L257.9 347.4L246.8 348.1L236.6 352.5L237.2 358.8L235.4 358.5L233.9 356.1L230.0 355.7L221.6 353.1L218.5 356.0L216.9 354.8L198.4 351.8L197.6 347.3L186.7 348.8L182.3 355.3L173.1 364.1L167.7 362.1L162.1 364.0L156.8 361.8L159.8 360.5L161.9 356.4L165.1 352.6L164.3 350.5L166.8 349.6L167.9 351.2L174.9 351.6L178.1 350.7L175.9 349.5L176.7 347.7L172.6 344.7L170.8 339.7L166.5 337.8L167.4 333.8L162.0 330.6L157.2 330.2L148.4 326.5L140.5 327.6L137.7 329.4L132.7 329.4L129.7 332.2L121.0 333.3L116.9 335.1L111.4 332.2L103.8 332.2L96.5 330.9L91.4 333.4L90.6 330.2L84.0 327.0L86.3 322.2L89.6 319.1L92.2 319.8L89.1 314.5L99.9 304.6L105.8 303.2L107.0 299.9L101.1 289.6L106.7 289.1L113.2 285.9L122.4 285.6L134.4 286.6L147.6 289.4L156.9 289.6L161.4 291.4L165.8 289.3L168.9 292.1L179.6 291.5L184.4 292.6L185.1 286.7L188.8 284.1L198.9 283.4Z"/><path d="M100.6 261.9L101.1 267.1L104.4 271.7L104.3 276.4L97.2 278.8L100.8 284.3L101.1 289.6L107.0 299.9L105.8 303.2L99.9 304.6L89.1 314.5L92.2 319.8L89.6 319.1L78.3 314.6L69.8 316.2L64.2 315.0L57.2 317.6L51.2 313.4L46.3 315.0L45.7 314.3L40.2 308.4L31.4 307.7L30.3 304.0L22.1 302.7L20.4 305.7L13.9 303.3L14.7 300.0L5.8 299.0L0.2 295.2L-4.7 287.6L-3.7 283.5L-6.7 277.2L-11.0 272.9L-7.7 269.8L-10.4 263.7L-2.3 260.3L16.2 254.8L31.1 250.8L42.9 252.8L43.8 255.7L55.2 255.8L69.8 257.2L91.6 257.0L97.7 258.2L100.6 261.9Z"/><path d="M23.5 330.5L22.6 335.4L15.9 335.4L18.2 338.0L14.2 345.6L12.0 347.6L1.6 347.9L-4.4 350.6L-14.1 349.7L-31.1 346.6L-33.7 342.5L-45.5 344.5L-46.8 346.8L-54.0 345.1L-60.1 344.8L-65.4 342.6L-63.6 339.7L-64.1 337.6L-60.5 337.0L-54.5 340.3L-52.8 337.1L-42.4 337.6L-33.9 335.5L-28.2 335.9L-24.5 338.3L-23.4 336.3L-25.1 328.6L-20.8 327.1L-16.6 321.6L-7.8 325.4L-1.2 320.6L3.0 319.7L12.2 323.3L17.8 322.7L23.2 324.9L22.3 326.4L23.5 330.5Z"/><path d="M84.0 327.0L90.6 330.2L91.4 333.4L84.1 335.9L78.5 343.9L71.4 352.0L61.9 354.2L54.5 353.7L45.4 356.8L45.4 356.8L41.0 358.6L31.2 356.3L22.3 351.2L18.5 349.7L16.2 345.7L14.2 345.6L18.2 338.0L15.9 335.4L22.6 335.4L23.5 330.5L29.5 333.6L33.9 334.9L43.8 333.4L44.8 331.0L49.5 330.7L55.2 328.8L56.5 329.6L62.1 328.1L64.9 325.3L68.8 324.6L81.4 328.2L84.0 327.0Z"/><path d="M156.8 361.8L162.1 364.0L167.7 362.1L173.1 364.1L173.4 367.2L167.6 369.7L164.0 368.6L160.7 382.9L153.7 381.7L145.1 377.3L131.1 380.1L125.3 383.1L107.9 382.5L98.8 380.6L94.2 381.5L90.8 376.6L88.6 374.6L91.3 372.6L88.4 371.1L84.7 373.8L77.8 370.3L76.8 365.4L69.6 362.6L68.3 358.9L61.9 354.2L71.4 352.0L78.5 343.9L84.1 335.9L91.4 333.4L96.5 330.9L103.8 332.2L111.4 332.2L116.9 335.1L121.0 333.3L129.7 332.2L132.7 329.4L137.7 329.4L141.3 330.5L145.0 334.1L148.8 339.1L155.6 346.1L156.0 351.3L154.7 356.4L156.8 361.8Z"/><path d="M136.2 241.7L137.3 247.0L127.6 250.8L124.9 257.5L112.0 262.0L100.6 261.9L97.7 258.2L91.6 257.0L90.7 253.9L91.9 250.7L86.7 248.8L74.3 246.7L71.8 236.8L85.3 233.1L105.2 233.9L116.9 232.7L118.5 235.2L124.8 236.0L136.2 241.7Z"/><path d="M145.6 219.7L151.3 222.4L152.4 228.1L156.2 235.1L143.4 239.7L136.2 241.7L124.8 236.0L118.5 235.2L116.9 232.7L105.2 233.9L85.3 233.1L71.8 236.8L72.2 227.8L78.0 220.4L89.2 216.4L98.6 225.2L108.1 225.0L110.4 215.9L120.5 213.8L125.7 215.2L135.9 219.6L145.6 219.7Z"/><path d="M153.9 195.9L153.9 195.9L155.6 198.0L147.2 204.8L150.7 215.9L145.6 219.7L135.9 219.6L125.7 215.2L120.5 213.8L110.4 215.9L111.8 208.9L107.4 210.4L99.9 206.2L98.8 199.4L113.8 196.0L128.8 194.3L141.6 196.3L153.9 195.9L153.9 195.9Z"/><path d="M-10.4 263.7L-7.7 269.8L-11.0 272.9L-6.7 277.2L-3.7 283.5L-4.7 287.6L0.2 295.2L-5.1 296.4L-8.2 295.0L-11.2 297.3L-19.7 299.6L-24.1 302.5L-32.7 305.1L-30.6 308.7L-29.4 313.7L-23.3 316.5L-16.6 321.6L-20.8 327.1L-25.1 328.6L-23.4 336.3L-24.5 338.3L-28.2 335.9L-33.9 335.5L-42.4 337.6L-52.8 337.1L-54.5 340.3L-60.5 337.0L-64.1 337.6L-76.8 334.0L-79.2 336.6L-89.3 336.5L-87.8 328.1L-81.8 319.9L-98.9 317.7L-104.5 314.6L-103.8 309.4L-106.2 306.8L-104.8 298.8L-106.8 286.3L-99.7 286.3L-96.7 281.9L-93.7 271.0L-95.9 267.0L-93.6 264.5L-83.7 263.8L-81.5 266.5L-73.5 260.6L-76.2 256.2L-76.7 249.4L-67.8 251.0L-60.2 249.2L-60.0 253.8L-48.0 256.5L-48.1 260.8L-36.1 258.5L-29.4 255.3L-16.0 260.0L-10.4 263.7Z"/><path d="M90.8 376.6L94.2 381.5L98.8 380.6L107.9 382.5L125.3 383.1L131.1 380.1L145.1 377.3L153.7 381.7L160.7 382.9L154.5 387.8L150.2 396.3L154.0 403.1L143.8 401.5L131.8 405.2L131.6 411.1L120.9 412.2L112.5 408.1L103.0 411.3L94.3 411.0L93.4 403.2L87.5 399.3L89.4 397.7L88.1 396.3L90.1 392.5L94.6 388.8L88.9 383.7L87.8 379.3L90.8 376.6Z"/><path d="M133.8 482.6L132.3 486.1L115.3 487.1L115.4 485.1L100.9 482.8L103.1 477.8L109.6 481.8L118.8 481.1L127.6 481.9L127.3 484.0L133.8 482.6Z"/><path d="M94.3 411.0L103.0 411.3L112.5 408.1L120.9 412.2L131.6 411.1L131.8 405.2L137.5 408.3L133.9 415.8L131.0 417.1L123.8 416.7L117.6 415.6L103.3 418.7L111.5 425.4L105.5 427.3L98.9 427.3L92.6 421.2L90.4 423.8L93.0 430.9L99.0 436.5L94.5 439.1L101.1 444.5L107.0 448.0L107.1 454.7L96.2 451.5L99.7 457.6L92.1 458.8L96.6 469.3L88.8 469.4L79.1 464.3L74.6 454.8L72.5 446.9L67.9 441.4L61.8 434.7L61.0 431.3L66.5 425.6L67.3 421.7L71.1 420.0L71.3 416.9L79.1 415.8L83.6 413.2L90.0 413.5L92.0 411.4L94.3 411.0Z"/><path d="M352.9 460.4L347.2 462.4L343.0 459.4L329.2 457.9L324.1 459.7L310.7 461.5L304.3 461.3L290.6 465.8L280.9 465.8L274.6 463.6L261.5 466.9L257.7 464.6L257.0 471.2L253.8 473.8L250.7 476.4L246.3 471.0L250.8 466.6L243.6 467.6L233.7 464.9L225.5 471.7L207.5 473.0L197.9 466.6L185.1 466.2L182.4 471.2L174.2 472.6L162.8 466.3L149.8 466.5L142.8 454.7L134.1 448.1L139.9 438.9L132.4 433.2L145.5 421.9L163.8 421.4L168.8 412.4L191.4 414.0L205.6 406.3L219.4 402.9L239.0 402.7L259.7 411.0L276.7 415.6L290.5 413.8L300.7 414.8L314.7 408.6L327.3 408.1L338.8 413.9L340.8 418.1L339.6 423.9L348.4 426.8L353.1 430.3L345.0 433.6L348.7 447.2L346.4 450.9L352.9 460.4L352.9 460.4Z"/><path d="M131.8 405.2L143.8 401.5L154.0 403.1L155.4 407.6L165.8 411.4L163.6 414.3L149.6 415.0L144.5 418.7L134.6 425.1L130.9 419.5L131.0 417.1L133.9 415.8L137.5 408.3L131.8 405.2Z"/><path d="M71.3 416.9L71.1 420.0L67.3 421.7L66.5 425.6L61.0 431.3L59.0 430.5L58.8 427.9L52.2 423.9L51.2 418.2L52.2 410.1L53.8 406.5L51.8 404.6L51.8 404.6L51.0 400.8L56.2 395.0L56.9 397.2L60.1 396.2L62.6 399.3L65.5 400.6L66.3 404.9L66.3 404.9L64.7 408.9L66.4 414.0L71.3 416.9Z"/><path d="M18.5 349.7L22.3 351.2L31.2 356.3L41.0 358.6L45.4 356.8L48.3 361.4L52.0 364.8L47.5 369.2L42.1 366.6L33.9 366.8L23.7 364.8L18.2 365.1L15.6 367.5L11.4 364.8L8.9 369.7L14.7 375.3L17.3 378.9L22.7 383.4L27.2 386.0L31.7 390.9L42.2 395.4L40.9 397.5L40.9 397.5L29.7 393.1L22.9 388.8L12.0 385.3L2.1 376.5L4.5 375.7L-0.9 370.7L-1.2 366.7L-8.8 364.8L-12.4 369.9L-15.9 365.9L-15.7 361.8L-15.2 361.6L-7.0 362.0L-4.8 360.0L-0.8 362.0L3.9 362.2L3.8 358.9L8.0 357.7L9.1 352.9L18.5 349.7Z"/><path d="M791.6 811.9L789.8 824.3L784.8 827.7L774.5 830.4L768.9 820.9L766.8 803.9L772.1 784.7L780.3 791.2L785.8 799.6L791.6 811.9Z"/><path d="M1265.5 611.9L1258.4 630.9L1253.3 640.6L1247.1 630.6L1245.7 621.8L1252.7 610.2L1262.2 601.2L1267.6 604.7L1265.5 611.9Z"/><path d="M-54.0 345.1L-46.8 346.8L-45.5 344.5L-33.7 342.5L-31.1 346.6L-14.1 349.7L-15.4 355.5L-12.6 360.6L-22.0 358.8L-31.7 363.0L-31.0 368.9L-32.5 372.3L-28.6 378.3L-17.5 384.3L-11.5 394.1L1.7 403.7L11.0 403.6L13.9 406.2L10.5 408.6L21.2 412.9L29.9 416.5L40.0 422.6L41.2 424.9L39.0 429.1L32.5 423.6L22.2 421.6L17.2 429.3L25.7 433.7L24.3 439.9L19.4 440.6L13.0 450.7L8.1 451.7L8.2 448.0L10.6 441.7L13.1 439.1L8.5 432.3L4.9 426.3L-0.0 424.8L-3.5 419.7L-11.1 417.5L-16.3 412.8L-25.0 412.0L-34.3 406.6L-45.1 398.9L-53.2 392.1L-56.9 380.4L-62.8 379.0L-72.4 375.1L-77.9 376.7L-84.7 382.2L-89.7 383.1L-88.3 377.9L-94.7 376.4L-97.8 367.2L-93.7 363.6L-97.2 359.2L-96.7 355.8L-91.6 358.4L-85.9 357.8L-79.2 353.8L-77.2 355.7L-71.5 355.3L-68.9 350.5L-60.2 352.0L-55.0 350.0L-54.0 345.1Z"/><path d="M-2.8 448.9L6.2 447.8L1.9 457.2L3.7 460.8L1.2 466.9L-7.9 462.5L-13.9 461.2L-30.4 455.2L-28.8 449.1L-14.9 450.2L-2.8 448.9Z"/><path d="M295.8 386.1L297.2 384.7L307.2 386.8L324.7 388.7L340.8 394.4L342.9 396.6L350.1 394.7L361.1 397.2L364.8 402.0L372.2 404.8L369.1 406.4L375.0 412.8L373.4 414.2L367.0 413.5L358.1 410.1L355.2 412.1L338.8 413.9L327.3 408.1L314.7 408.6L316.5 403.6L313.5 395.5L306.7 391.1L300.1 389.8L295.8 386.1Z"/><path d="M1254.3 750.5L1248.3 741.5L1258.4 741.9L1262.5 746.2L1259.4 756.4L1254.3 750.5Z"/><path d="M1275.1 782.8L1278.1 779.5L1279.4 772.1L1285.9 771.4L1284.0 779.4L1292.8 768.0L1291.6 779.3L1287.4 783.2L1283.7 790.7L1280.0 794.2L1272.7 786.0L1275.1 782.8Z"/><path d="M1320.0 801.4L1321.2 809.2L1321.9 815.9L1317.9 826.7L1313.6 814.7L1308.0 820.7L1311.8 829.4L1308.4 835.0L1294.5 828.1L1291.1 819.5L1294.7 813.9L1287.2 808.3L1283.5 813.2L1277.9 812.7L1269.2 819.3L1267.2 815.9L1271.9 805.9L1279.3 802.5L1285.8 798.1L1290.0 803.4L1299.0 800.2L1300.9 794.9L1309.3 794.6L1308.6 785.4L1318.2 791.0L1319.2 797.0L1320.0 801.4Z"/><path d="M1226.7 790.7L1211.0 801.9L1216.8 793.6L1225.3 786.3L1232.4 778.1L1238.7 766.3L1240.8 776.0L1232.9 782.5L1226.7 790.7Z"/><path d="M1272.1 685.0L1270.2 690.0L1274.3 698.5L1271.1 708.3L1264.2 712.2L1262.3 721.8L1264.9 731.2L1271.2 732.6L1276.5 731.2L1291.3 737.7L1290.1 744.2L1294.0 747.0L1292.8 752.5L1283.5 746.7L1279.2 740.4L1276.1 744.8L1268.6 737.7L1257.8 739.5L1251.9 736.8L1252.5 731.9L1256.2 728.9L1252.7 726.2L1251.1 730.4L1245.3 723.6L1243.5 718.5L1243.1 707.1L1247.8 711.0L1249.1 692.5L1252.9 681.7L1260.1 681.7L1267.4 685.1L1271.1 682.0L1272.1 685.0Z"/><path d="M1268.6 765.8L1266.8 760.1L1273.9 763.8L1281.4 763.8L1281.2 768.7L1275.7 773.8L1268.2 777.3L1267.8 771.8L1268.6 765.8Z"/><path d="M1309.7 756.9L1313.0 770.2L1303.8 767.0L1304.1 771.0L1307.0 778.3L1301.4 781.0L1300.9 772.6L1297.3 772.0L1295.4 764.8L1302.4 765.8L1302.3 761.3L1295.0 752.2L1306.4 752.5L1309.7 756.9Z"/><path d="M1008.4 824.5L1010.5 822.4L1020.2 827.6L1021.1 833.7L1028.9 832.2L1032.8 827.4L1035.5 828.5L1042.5 835.6L1047.5 843.6L1048.2 851.6L1046.9 857.0L1048.1 861.0L1048.9 868.0L1053.1 871.3L1057.8 881.8L1057.5 885.8L1049.1 886.6L1037.9 877.8L1023.9 868.4L1022.5 862.4L1015.6 854.4L1014.0 844.6L1009.7 838.2L1011.0 829.5L1008.4 824.5Z"/><path d="M1219.3 852.1L1209.1 850.1L1195.4 850.1L1191.3 863.6L1186.8 867.7L1180.7 884.2L1171.0 886.7L1159.8 883.4L1154.1 884.4L1147.2 890.4L1139.7 889.6L1132.0 892.0L1123.9 885.3L1121.9 877.4L1130.6 881.4L1139.8 879.2L1142.2 869.2L1147.2 866.9L1161.4 864.4L1169.9 855.0L1175.8 847.5L1181.2 853.6L1183.6 849.6L1189.3 850.0L1190.0 842.4L1190.5 836.5L1199.7 828.3L1205.6 819.0L1210.4 819.0L1216.5 825.0L1217.1 830.1L1224.9 833.5L1234.7 837.0L1233.9 841.7L1226.0 842.3L1228.1 848.0L1219.3 852.1Z"/><path d="M-14.1 349.7L-4.4 350.6L1.6 347.9L12.0 347.6L14.2 345.6L16.2 345.7L18.5 349.7L9.1 352.9L8.0 357.7L3.8 358.9L3.9 362.2L-0.8 362.0L-4.8 360.0L-7.0 362.0L-15.2 361.6L-12.6 360.6L-15.4 355.5L-14.1 349.7Z"/><path d="M161.1 82.2L159.4 90.5L177.5 98.4L166.6 107.4L180.4 120.9L172.4 131.0L183.0 139.9L178.2 147.6L195.7 155.7L191.3 161.8L180.3 168.6L154.9 183.7L154.9 183.7L154.9 183.7L133.4 184.7L112.6 189.0L93.3 191.5L86.4 185.1L74.9 181.2L77.6 169.5L71.8 158.8L77.5 151.9L88.2 144.4L115.3 131.6L123.2 129.1L122.0 124.1L105.5 118.5L101.5 113.9L101.2 95.6L82.7 87.5L66.9 81.7L74.0 78.6L87.2 84.9L102.7 84.3L115.4 87.2L126.7 81.9L132.5 73.2L150.9 69.2L166.1 73.9L161.1 82.2Z"/><path d="M89.6 319.1L86.3 322.2L84.0 327.0L81.4 328.2L68.8 324.6L64.9 325.3L62.1 328.1L56.5 329.6L55.2 328.8L49.5 330.7L44.8 331.0L43.8 333.4L33.9 334.9L29.5 333.6L23.5 330.5L22.3 326.4L23.2 324.9L24.9 322.3L30.2 322.5L34.2 321.3L34.5 320.2L36.8 319.6L37.6 316.9L40.3 316.4L42.1 314.3L45.7 314.3L46.3 315.0L51.2 313.4L57.2 317.6L64.2 315.0L69.8 316.2L78.3 314.6L89.6 319.1Z"/><path d="M0.2 295.2L5.8 299.0L14.7 300.0L13.9 303.3L20.4 305.7L22.1 302.7L30.3 304.0L31.4 307.7L40.2 308.4L45.7 314.3L42.1 314.3L40.3 316.4L37.6 316.9L36.8 319.6L34.5 320.2L34.2 321.3L30.2 322.5L24.9 322.3L23.2 324.9L17.8 322.7L12.2 323.3L3.0 319.7L-1.2 320.6L-7.8 325.4L-16.6 321.6L-23.3 316.5L-29.4 313.7L-30.6 308.7L-32.7 305.1L-24.1 302.5L-19.7 299.6L-11.2 297.3L-8.2 295.0L-5.1 296.4L0.2 295.2Z"/><path d="M254.0 730.1L252.7 725.4L257.8 708.0L259.0 700.1L262.7 696.5L271.5 694.5L277.5 687.7L284.3 701.5L287.6 712.3L294.1 718.1L310.3 729.3L316.9 736.1L323.3 742.9L327.0 747.0L332.8 750.6L329.2 753.5L324.2 752.4L320.1 748.6L315.2 741.6L310.0 737.8L306.9 733.7L296.6 729.0L288.5 728.8L285.6 726.4L278.7 729.1L271.5 723.8L267.8 732.6L254.0 730.1Z"/><path d="M1503.8 436.6L1492.9 448.5L1493.1 460.7L1488.6 470.2L1490.7 476.1L1484.5 484.5L1469.3 490.1L1448.5 490.8L1431.6 504.3L1423.7 499.8L1423.2 490.9L1402.6 493.5L1388.5 499.1L1374.7 499.4L1386.7 508.1L1378.8 528.2L1371.1 533.2L1365.4 528.6L1368.3 517.9L1360.8 514.5L1356.0 506.3L1367.2 502.7L1373.4 495.2L1385.3 489.1L1394.0 481.0L1417.6 477.5L1430.3 479.9L1442.7 458.8L1450.6 464.5L1467.9 452.6L1474.7 448.0L1482.1 433.5L1480.1 420.2L1485.1 412.7L1497.7 410.5L1504.2 427.0L1503.8 436.6Z"/><path d="M1536.2 379.9L1544.5 374.9L1547.2 388.2L1529.6 391.4L1519.2 403.2L1500.6 395.1L1494.1 408.1L1480.9 408.2L1479.3 396.5L1485.2 387.3L1497.8 386.7L1501.3 370.3L1504.8 361.0L1518.7 373.4L1527.8 377.4L1536.2 379.9Z"/><path d="M1391.1 504.4L1397.6 497.3L1404.4 498.7L1409.2 493.7L1417.9 496.2L1419.5 500.3L1412.8 507.5L1407.9 503.7L1401.8 506.4L1398.7 513.4L1391.0 510.0L1391.1 504.4Z"/><path d="M438.5 675.9L447.8 695.4L451.7 703.7L443.1 706.9L440.8 712.2L440.5 716.2L428.7 721.2L409.8 726.7L399.2 735.1L393.9 735.8L390.4 735.1L383.5 740.0L375.9 742.3L366.0 742.9L363.0 743.6L360.4 746.7L357.3 747.5L355.4 750.6L349.6 750.3L345.8 751.9L337.6 751.3L334.5 744.4L334.8 737.9L332.9 734.4L330.6 725.6L327.2 720.8L329.5 720.2L328.3 714.8L329.8 712.5L329.2 707.3L334.4 703.5L333.2 698.5L336.4 692.7L341.2 695.8L344.4 694.7L358.1 694.4L360.3 695.6L371.8 696.8L376.3 696.2L379.3 700.2L384.8 698.2L393.3 685.7L404.3 680.4L438.5 675.9Z"/><path d="M236.5 553.1L249.7 554.9L254.8 551.3L257.7 547.0L266.7 545.4L268.7 541.4L272.6 539.4L260.8 527.5L284.5 521.6L286.8 519.8L301.0 523.0L318.7 531.3L352.1 555.2L374.1 556.1L384.7 557.3L387.7 562.9L396.0 562.6L400.7 572.8L406.5 575.5L408.5 579.7L416.6 584.7L417.3 589.6L416.2 593.5L417.7 597.5L421.1 600.8L422.6 604.7L424.4 607.6L428.0 610.0L431.3 609.1L433.5 613.7L434.0 616.4L438.5 628.4L474.2 634.4L476.5 631.9L482.0 640.3L474.1 664.0L438.5 675.9L404.3 680.4L393.3 685.7L384.8 698.2L379.3 700.2L376.3 696.2L371.8 696.8L360.3 695.6L358.1 694.4L344.4 694.7L341.2 695.8L336.4 692.7L333.2 698.5L334.4 703.5L329.2 707.3L327.7 702.2L324.1 698.7L323.2 693.9L317.1 689.7L310.8 679.8L307.4 670.1L299.2 661.9L293.9 660.0L286.1 648.7L284.7 640.4L285.2 633.4L278.4 620.3L272.9 615.6L266.5 613.2L262.6 606.4L263.2 603.7L259.9 597.6L256.5 594.9L251.8 586.1L244.6 576.5L238.6 568.4L232.7 568.4L234.5 561.9L235.0 557.8L236.5 553.1Z"/><path d="M210.2 484.5L211.0 484.4L212.7 481.6L221.2 481.7L232.0 478.2L224.0 483.2L224.9 485.4L223.6 485.0L221.3 485.9L219.6 485.7L219.0 486.1L218.7 484.9L217.9 484.2L215.6 484.1L212.4 485.1L210.2 484.5Z"/><path d="M210.2 484.5L212.4 485.1L215.6 484.1L217.9 484.2L218.7 484.9L219.0 486.1L219.6 485.7L221.3 485.9L223.6 485.0L224.9 485.4L225.2 486.4L213.1 491.2L207.3 489.7L204.5 484.9L210.2 484.5Z"/><path d="M259.2 640.3L212.1 640.3L166.2 640.3L118.5 640.3L118.5 596.6L118.5 554.5L115.0 544.9L118.0 537.6L116.2 532.5L120.5 526.8L136.2 526.6L147.6 529.8L159.4 533.3L164.9 535.1L174.0 531.4L178.9 528.0L189.4 527.0L197.8 528.5L201.0 534.4L203.8 530.5L213.3 533.3L222.5 534.0L228.3 531.0L228.3 531.0L234.9 548.3L236.1 551.3L232.8 556.1L230.2 565.1L227.0 571.2L224.3 573.3L220.3 569.5L215.0 564.2L206.5 547.2L205.3 548.3L210.2 560.8L217.5 572.7L226.4 591.2L230.8 597.6L234.6 604.3L245.2 617.4L242.9 619.5L243.3 627.2L257.1 637.9L259.2 640.3Z"/><path d="M118.5 640.3L118.5 664.0L104.9 664.0L104.7 669.0L57.5 646.3L10.2 623.6L-1.8 630.1L-10.1 634.5L-16.8 627.9L-35.6 622.8L-40.8 615.4L-50.1 609.9L-55.7 612.1L-59.9 605.5L-60.3 600.4L-67.3 591.7L-62.6 586.8L-63.7 579.3L-62.1 572.8L-63.0 567.4L-60.9 557.8L-61.6 552.3L-65.4 541.8L-59.6 539.0L-58.6 534.0L-59.8 529.1L-51.7 524.5L-48.1 520.7L-42.3 517.3L-41.6 508.2L-27.7 512.3L-22.7 511.3L-12.8 513.3L2.9 518.6L8.5 529.1L19.1 531.4L35.8 536.4L48.4 542.3L54.2 539.2L59.9 533.7L57.1 524.7L60.8 518.9L69.4 513.3L77.5 511.7L93.6 514.1L97.6 519.4L102.0 519.5L105.8 521.5L117.6 522.9L120.5 526.8L116.2 532.5L118.0 537.6L115.0 544.9L118.5 554.5L118.5 596.6L118.5 640.3Z"/><path d="M388.6 806.3L355.1 841.8L339.7 842.4L329.1 850.7L321.5 850.9L318.3 854.7L310.2 854.7L305.4 850.7L294.6 855.6L291.1 860.6L283.2 859.6L280.5 858.3L277.8 858.6L274.0 858.5L259.0 848.4L250.8 848.4L246.7 844.5L246.7 837.8L240.6 835.9L233.6 823.0L228.2 820.2L226.1 815.5L220.1 809.7L212.8 808.8L216.8 802.1L223.1 801.8L224.9 798.2L224.7 787.5L228.2 775.1L233.9 771.8L235.0 766.9L240.1 757.9L247.3 752.0L252.1 740.3L254.0 730.1L267.8 732.6L271.5 723.8L278.7 729.1L285.6 726.4L288.5 728.8L296.6 729.0L306.9 733.7L310.0 737.8L315.2 741.6L320.1 748.6L324.2 752.4L320.0 757.7L316.0 763.2L316.9 766.5L317.1 770.1L323.7 770.3L326.6 769.5L329.2 771.6L326.6 775.8L331.0 782.3L335.4 788.0L339.9 792.3L378.6 806.3L388.6 806.3Z"/><path d="M324.2 752.4L329.2 753.5L332.8 750.6L335.6 754.2L335.2 759.2L328.5 762.0L333.6 765.2L329.2 771.6L326.6 769.5L323.7 770.3L317.1 770.1L316.9 766.5L316.0 763.2L320.0 757.7L324.2 752.4Z"/><path d="M402.3 765.8L402.3 765.8L402.3 766.0L402.2 770.9L402.2 782.9L402.2 789.1L396.9 796.4L388.6 806.3L378.6 806.3L339.9 792.3L335.4 788.0L331.0 782.3L326.6 775.8L329.2 771.6L333.6 765.2L337.4 767.4L339.8 772.3L345.1 777.3L351.0 777.3L362.2 774.3L375.1 772.9L385.5 769.2L391.4 768.4L395.6 766.3L402.3 765.8L402.3 765.8Z"/><path d="M42.2 395.4L31.7 390.9L27.2 386.0L22.7 383.4L17.3 378.9L14.7 375.3L8.9 369.7L11.4 364.8L15.6 367.5L18.2 365.1L23.7 364.8L33.9 366.8L42.1 366.6L47.5 369.2L47.5 369.2L51.8 369.2L48.8 374.4L54.5 379.0L52.8 384.5L50.0 385.1L47.8 386.2L43.9 388.9L42.2 395.4Z"/><path d="M87.5 399.3L93.4 403.2L94.3 411.0L92.0 411.4L90.0 413.5L83.6 413.2L79.1 415.8L71.3 416.9L66.4 414.0L64.7 408.9L66.3 404.9L66.3 404.9L67.8 405.0L68.3 402.5L75.3 400.7L77.9 400.2L82.0 399.5L87.5 399.3Z"/><path d="M45.4 356.8L45.4 356.8L54.5 353.7L61.9 354.2L68.3 358.9L69.6 362.6L76.8 365.4L77.8 370.3L84.7 373.8L88.4 371.1L91.3 372.6L88.6 374.6L90.8 376.6L87.8 379.3L88.9 383.7L94.6 388.8L90.1 392.5L88.1 396.3L89.4 397.7L87.5 399.3L82.0 399.5L77.9 400.2L77.6 399.3L79.0 397.9L80.3 395.0L78.6 395.1L76.3 392.9L74.4 392.4L72.8 390.5L70.6 389.7L68.9 388.1L66.8 388.7L65.1 392.7L62.3 393.5L63.3 392.5L58.8 390.0L54.9 388.8L53.1 387.1L50.0 385.1L52.8 384.5L54.5 379.0L48.8 374.4L51.8 369.2L47.5 369.2L47.5 369.2L52.0 364.8L48.3 361.4L45.4 356.8Z"/><path d="M60.1 396.2L56.9 397.2L56.2 395.0L51.0 400.8L51.8 404.6L49.3 403.7L46.0 399.8L40.9 397.5L42.2 395.4L43.9 388.9L47.8 386.2L50.0 385.1L53.1 387.1L54.9 388.8L58.8 390.0L63.3 392.5L62.3 393.5L60.1 396.2Z"/><path d="M66.3 404.9L65.5 400.6L62.6 399.3L60.1 396.2L62.3 393.5L65.1 392.7L66.8 388.7L68.9 388.1L70.6 389.7L72.8 390.5L74.4 392.4L76.3 392.9L78.6 395.1L80.3 395.0L79.0 397.9L77.6 399.3L77.9 400.2L75.3 400.7L68.3 402.5L67.8 405.0L66.3 404.9Z"/><path d="M187.7 859.5L177.2 851.7L174.4 846.6L167.8 849.1L162.3 848.3L159.2 850.3L153.8 848.9L146.7 839.1L144.8 835.3L135.9 830.6L132.9 823.5L128.0 818.4L120.0 812.2L119.9 808.4L113.4 803.6L105.3 798.9L109.0 797.6L113.0 795.4L116.1 784.8L119.3 779.3L127.9 777.7L129.9 781.0L136.0 787.9L139.3 788.9L143.6 786.9L152.1 787.3L153.7 789.7L165.5 789.7L165.9 787.3L172.0 785.0L173.3 781.6L177.7 779.1L187.7 786.0L193.8 784.8L199.7 776.3L206.2 769.8L205.2 762.6L202.4 759.2L209.5 758.6L210.3 755.9L215.8 756.7L214.4 765.5L215.8 774.0L221.9 778.7L223.3 782.8L223.1 788.7L224.8 788.9L224.9 798.2L223.1 801.8L216.8 802.1L212.8 808.8L220.1 809.7L226.1 815.5L228.2 820.2L233.6 823.0L240.6 835.9L232.5 843.7L225.2 850.8L218.0 856.2L209.6 856.2L200.1 859.0L192.5 856.3L187.7 859.5Z"/></g>
  <g fill="#a8c4e5" fill-rule="evenodd" stroke="#fff" stroke-width="1.2" stroke-linejoin="round"><path d="M857.6 317.6L848.6 325.5L838.7 326.6L838.2 338.5L831.6 343.8L808.1 339.9L799.5 361.2L793.4 363.8L770.0 368.5L780.6 389.1L772.5 392.2L773.5 399.0L766.1 397.3L760.2 393.0L742.6 391.8L723.0 391.4L718.7 392.7L701.8 387.7L695.1 390.2L693.2 397.2L673.7 393.1L665.9 394.8L663.3 400.0L656.5 402.2L640.8 410.4L635.6 418.9L631.2 419.0L628.0 413.4L612.9 413.0L610.5 403.3L604.7 403.2L605.6 391.3L591.4 382.7L571.1 383.6L557.2 385.3L545.9 374.6L536.2 370.1L517.8 361.6L515.6 360.6L485.1 367.6L485.5 411.3L479.5 411.9L471.2 402.6L463.2 399.3L449.7 401.8L444.5 405.7L443.8 402.8L446.7 397.9L444.5 393.7L430.7 389.7L425.4 379.1L418.8 376.1L418.4 372.2L430.0 373.3L430.4 364.7L440.5 362.7L450.9 364.5L453.0 352.9L450.9 345.6L439.0 346.2L428.9 343.3L415.2 348.5L404.2 351.0L398.1 349.1L399.3 343.0L391.8 335.0L383.0 335.4L372.9 327.3L379.8 318.3L376.3 315.9L385.8 302.9L398.0 309.8L399.4 301.1L423.9 288.2L442.4 287.9L468.5 296.1L482.6 300.9L495.1 295.9L513.9 295.7L529.1 301.8L532.5 298.3L549.2 298.8L552.2 293.2L532.9 285.0L544.3 279.3L542.1 276.0L553.5 273.0L544.9 264.8L550.4 260.8L594.7 256.7L600.5 253.7L630.2 249.4L640.8 244.4L662.1 247.0L665.8 259.3L678.2 256.4L693.4 260.4L692.5 266.9L703.8 266.2L733.5 255.0L729.2 258.8L744.3 267.9L770.8 298.0L777.1 291.8L793.4 298.7L810.5 295.6L817.0 297.7L822.7 304.6L831.0 306.9L836.0 311.9L851.3 310.3L857.6 317.6Z"/><path d="M485.5 411.3L485.1 367.6L515.6 360.6L517.8 361.6L536.2 370.1L545.9 374.6L557.2 385.3L571.1 383.6L591.4 382.7L605.6 391.3L604.7 403.2L610.5 403.3L612.9 413.0L628.0 413.4L631.2 419.0L635.6 418.9L640.8 410.4L656.5 402.2L663.3 400.0L666.8 401.2L656.8 408.8L665.6 413.3L674.0 410.3L688.1 416.6L672.9 425.1L663.9 424.0L659.0 424.3L657.3 421.0L659.8 415.5L643.9 418.2L640.1 425.8L634.5 432.4L624.6 431.8L621.5 437.1L630.2 439.9L632.8 448.7L626.1 460.7L617.2 458.2L610.6 458.1L610.9 450.9L595.2 445.8L582.8 440.0L575.0 434.4L561.5 426.2L555.6 414.0L551.7 411.8L538.9 412.4L534.3 410.0L533.1 400.5L517.1 394.2L507.1 401.1L497.0 405.2L498.9 411.2L485.5 411.3Z"/><path d="M404.2 351.0L398.8 358.0L387.3 360.0L375.5 372.2L386.3 383.5L385.1 391.4L398.0 405.4L398.0 405.4L391.0 410.2L388.9 413.2L383.7 412.4L375.5 405.2L372.2 404.8L364.8 402.0L361.1 397.2L350.1 394.7L342.9 396.6L340.8 394.4L324.7 388.7L307.2 386.8L297.2 384.7L295.8 386.1L280.7 376.1L267.1 371.6L256.9 364.7L265.5 362.8L275.4 352.9L268.7 348.2L286.2 343.3L285.9 340.7L275.2 342.6L275.6 337.4L281.7 334.1L293.2 333.2L295.1 329.2L292.4 322.7L297.3 316.5L297.1 313.0L279.6 309.2L272.7 309.3L265.4 303.7L256.3 305.6L241.3 301.4L241.5 299.1L237.3 294.0L227.8 293.4L226.9 289.7L229.8 287.3L222.3 280.6L210.0 281.7L206.4 281.1L203.4 283.8L198.9 283.4L198.9 283.4L196.0 275.8L193.2 271.8L195.5 270.7L205.1 271.1L209.7 268.5L206.3 265.4L198.3 263.3L199.0 261.2L194.2 259.0L186.8 251.2L189.3 248.0L188.1 242.5L176.5 239.6L170.3 241.1L168.6 238.1L156.2 235.1L152.4 228.1L151.3 222.4L145.6 219.7L150.7 215.9L147.2 204.8L155.6 198.0L153.9 195.9L153.9 195.9L167.3 189.4L154.9 183.7L154.9 183.7L180.3 168.6L191.3 161.8L195.7 155.7L178.2 147.6L183.0 139.9L172.4 131.0L180.4 120.9L166.6 107.4L177.5 98.4L159.4 90.5L161.1 82.2L170.7 81.1L190.8 76.4L190.8 76.4L203.1 72.3L222.5 79.4L255.0 82.2L299.8 95.7L308.9 101.3L309.6 109.2L296.5 115.4L277.1 118.6L224.2 109.6L215.5 111.1L234.8 119.8L235.6 125.3L236.4 137.4L251.6 141.0L260.9 144.1L262.4 138.3L255.3 133.2L262.8 128.7L291.5 136.1L301.5 133.2L293.5 124.5L321.1 112.9L332.0 113.6L343.1 117.8L350.0 109.6L340.1 102.5L345.9 95.4L337.2 88.1L370.4 91.9L377.1 98.5L362.1 100.0L362.2 106.6L371.5 110.7L389.9 108.1L392.8 100.5L417.5 94.9L458.9 84.7L467.8 85.3L456.1 92.5L470.8 93.7L479.3 89.7L501.5 89.3L519.1 84.4L532.6 91.6L546.1 83.7L533.7 76.8L539.9 72.9L574.9 76.5L591.3 80.2L634.2 93.8L642.1 87.6L630.1 81.3L629.8 78.8L615.5 77.6L619.4 72.0L613.0 62.7L612.7 58.9L634.5 48.2L642.3 37.4L651.1 35.1L682.5 38.2L685.0 44.8L673.8 54.4L681.1 58.2L684.9 66.5L682.2 82.8L695.3 90.0L690.2 97.9L667.0 114.8L680.6 116.5L685.3 112.3L698.3 109.2L701.5 103.3L711.7 97.7L704.8 91.0L710.4 83.1L697.4 82.2L694.5 75.6L704.0 63.7L688.6 54.0L709.8 46.0L707.1 37.6L713.0 37.3L719.2 43.9L714.5 55.3L727.2 57.5L721.8 48.9L741.6 44.3L766.2 43.6L788.1 50.4L777.6 40.5L776.4 27.9L797.0 25.5L825.5 26.0L851.2 24.5L841.6 18.3L855.3 10.5L868.9 10.2L892.0 4.3L923.3 2.7L927.2 -0.6L958.3 -1.7L968.0 1.0L994.6 -5.3L1016.4 -5.1L1019.7 -10.2L1031.0 -15.3L1059.0 -20.1L1079.3 -16.3L1063.2 -13.4L1090.0 -11.6L1093.2 -5.7L1104.0 -8.6L1138.7 -8.4L1165.4 -2.6L1174.9 1.8L1172.0 8.0L1158.9 11.5L1127.7 18.1L1118.8 21.6L1133.5 23.2L1151.0 26.2L1161.7 24.0L1167.8 31.6L1173.0 28.5L1191.9 26.6L1229.9 28.6L1232.8 34.1L1282.4 35.9L1283.1 26.9L1308.2 28.9L1327.1 28.9L1346.3 35.1L1351.7 42.7L1344.7 47.7L1359.6 57.0L1378.2 61.8L1389.7 49.4L1408.7 54.7L1428.9 51.5L1451.8 55.2L1460.6 51.8L1479.9 53.5L1471.4 42.5L1487.0 37.4L1594.1 45.1L1604.2 52.1L1635.2 61.2L1683.0 58.9L1706.6 60.9L1716.5 65.8L1715.1 74.4L1729.7 77.8L1745.5 75.4L1766.5 75.1L1788.9 77.4L1811.4 76.1L1832.0 86.6L1846.7 82.8L1837.1 75.3L1842.4 70.0L1880.2 73.3L1904.9 72.6L1939.0 78.3L1955.6 83.4L1955.6 130.7L1955.5 130.7L1940.2 135.9L1924.9 135.1L1935.6 141.4L1942.6 151.2L1948.1 154.3L1949.5 159.3L1946.4 162.4L1924.3 159.8L1891.2 168.7L1880.7 170.1L1862.5 178.4L1845.3 185.7L1841.0 191.1L1824.0 182.9L1793.1 192.2L1787.7 187.8L1776.3 192.9L1760.5 191.3L1756.6 199.1L1742.4 210.5L1742.9 215.3L1756.3 218.0L1754.8 235.3L1743.8 235.7L1738.7 245.6L1743.6 250.7L1722.9 256.8L1718.8 270.3L1701.1 273.2L1697.6 285.3L1680.5 296.3L1676.1 288.1L1671.0 270.8L1664.4 244.5L1670.1 228.0L1680.1 221.0L1680.7 215.4L1699.1 212.8L1720.3 197.8L1740.7 185.6L1762.0 176.2L1771.5 159.5L1757.1 160.5L1750.0 170.2L1720.0 183.3L1710.2 168.7L1679.7 172.7L1650.0 192.6L1659.8 199.9L1633.3 202.9L1615.0 204.2L1615.9 195.6L1597.4 193.8L1582.8 199.6L1546.5 197.6L1507.5 201.1L1469.1 224.2L1423.7 252.2L1442.4 253.7L1448.2 261.1L1459.7 263.8L1467.3 257.8L1480.3 258.6L1497.4 271.7L1497.8 281.7L1488.6 293.6L1487.6 307.7L1482.2 326.7L1464.4 343.9L1460.4 352.1L1444.3 365.9L1428.3 379.6L1420.7 386.6L1404.9 393.5L1397.4 393.7L1390.0 387.9L1374.1 396.6L1372.2 400.5L1372.2 400.5L1372.2 400.5L1372.2 400.5L1370.5 398.5L1370.5 398.5L1370.5 392.4L1376.5 392.1L1378.2 378.1L1375.1 368.0L1385.3 363.8L1399.7 365.9L1407.6 354.3L1411.7 341.3L1416.3 337.0L1422.5 326.3L1402.9 329.8L1392.7 334.5L1374.7 334.5L1369.9 323.3L1355.8 314.9L1335.2 311.1L1330.8 299.5L1326.7 292.2L1322.2 287.1L1314.9 275.2L1304.5 270.8L1286.8 267.3L1271.1 267.6L1256.3 269.7L1246.5 275.6L1253.0 278.5L1253.2 285.0L1246.6 288.8L1235.9 301.4L1236.0 306.6L1219.3 314.1L1205.1 309.6L1190.9 310.6L1184.7 306.6L1177.6 305.3L1160.3 313.7L1144.7 315.7L1133.8 318.6L1118.8 316.7L1107.9 316.8L1100.7 310.7L1089.1 305.0L1077.2 303.5L1062.2 305.0L1051.0 307.2L1034.1 302.2L1031.9 293.3L1017.9 290.3L1007.2 288.9L993.9 284.0L981.6 296.3L986.5 303.3L974.9 311.5L957.8 308.6L946.0 308.1L938.0 302.6L925.7 302.4L915.4 298.8L897.3 304.4L874.7 314.6L862.2 316.6L857.6 317.6L851.3 310.3L836.0 311.9L831.0 306.9L822.7 304.6L817.0 297.7L810.5 295.6L793.4 298.7L777.1 291.8L770.8 298.0L744.3 267.9L729.2 258.8L733.5 255.0L703.8 266.2L692.5 266.9L693.4 260.4L678.2 256.4L665.8 259.3L662.1 247.0L640.8 244.4L630.2 249.4L600.5 253.7L594.7 256.7L550.4 260.8L544.9 264.8L553.5 273.0L542.1 276.0L544.3 279.3L532.9 285.0L552.2 293.2L549.2 298.8L532.5 298.3L529.1 301.8L513.9 295.7L495.1 295.9L482.6 300.9L468.5 296.1L442.4 287.9L423.9 288.2L399.4 301.1L398.0 309.8L385.8 302.9L376.3 315.9L379.8 318.3L372.9 327.3L383.0 335.4L391.8 335.0L399.3 343.0L398.1 349.1L404.2 351.0Z"/><path d="M1467.6 -1.6L1498.9 -1.1L1541.8 5.2L1532.4 14.0L1488.8 13.7L1469.1 16.5L1445.6 8.8L1452.0 0.6L1467.6 -1.6Z"/><path d="M1578.9 7.8L1608.7 10.9L1595.0 15.5L1576.0 14.5L1554.0 9.8L1556.8 6.0L1578.9 7.8Z"/><path d="M1479.9 31.2L1491.1 26.5L1505.9 25.4L1522.8 29.9L1524.2 33.1L1506.2 33.1L1481.9 31.8L1479.9 31.2Z"/><path d="M91.6 257.0L69.8 257.2L55.2 255.8L57.9 250.6L74.3 246.7L86.7 248.8L91.9 250.7L90.7 253.9L91.6 257.0Z"/><path d="M456.4 26.7L484.8 16.3L481.6 10.9L508.1 4.6L547.2 -3.0L586.6 -5.2L606.9 -9.6L630.0 -11.1L638.2 -6.5L630.3 -2.8L588.3 3.1L552.1 8.8L515.3 20.0L497.6 31.6L479.0 43.0L481.5 52.9L504.1 62.6L497.1 63.6L458.4 62.1L455.3 56.8L433.8 53.7L432.1 47.3L444.2 44.7L443.8 38.2L467.3 28.1L456.4 26.7Z"/><path d="M1516.0 264.4L1520.1 275.8L1519.8 287.5L1524.7 299.4L1536.6 320.4L1519.1 316.5L1511.8 333.6L1523.4 345.8L1523.0 354.1L1514.0 346.9L1506.3 356.1L1504.1 346.2L1505.4 334.6L1504.1 321.8L1506.8 312.8L1507.3 297.0L1500.4 285.3L1501.4 269.1L1512.4 263.7L1507.7 258.2L1512.9 256.5L1516.0 264.4Z"/><path d="M218.5 356.0L221.6 353.1L230.0 355.7L233.9 356.1L235.4 358.5L237.2 358.8L237.3 359.8L243.1 362.7L255.2 362.0L252.9 366.2L239.9 368.3L223.8 375.1L217.2 372.7L219.8 367.2L206.9 363.7L209.0 361.4L220.3 357.5L218.5 356.0Z"/><path d="M626.1 460.7L632.8 448.7L630.2 439.9L621.5 437.1L624.6 431.8L634.5 432.4L640.1 425.8L643.9 418.2L659.8 415.5L657.3 421.0L659.0 424.3L663.9 424.0L659.5 427.6L646.6 425.6L645.5 432.5L658.4 431.6L673.0 435.4L695.4 433.6L698.4 444.6L702.3 443.4L709.5 446.1L709.1 450.7L710.9 457.4L698.7 457.4L690.5 456.6L683.1 461.9L677.8 463.0L673.7 465.5L669.0 461.7L670.1 451.7L666.5 451.1L667.8 447.5L661.4 444.8L656.3 448.9L655.1 453.7L653.2 455.5L646.1 455.2L642.3 460.6L638.3 458.3L629.8 462.2L626.1 460.7Z"/><path d="M663.3 400.0L665.9 394.8L673.7 393.1L693.2 397.2L695.1 390.2L701.8 387.7L718.7 392.7L723.0 391.4L742.6 391.8L760.2 393.0L766.1 397.3L773.5 399.0L771.8 401.7L753.1 408.1L748.9 412.8L733.7 414.2L729.2 421.8L716.7 420.2L708.5 422.5L697.2 428.1L698.8 430.9L695.4 433.6L673.0 435.4L658.4 431.6L645.5 432.5L646.6 425.6L659.5 427.6L663.9 424.0L672.9 425.1L688.1 416.6L674.0 410.3L665.6 413.3L656.8 408.8L666.8 401.2L663.3 400.0Z"/><path d="M444.5 405.7L449.7 401.8L463.2 399.3L471.2 402.6L479.5 411.9L485.5 411.3L498.9 411.2L497.0 405.2L507.1 401.1L517.1 394.2L533.1 400.5L534.3 410.0L538.9 412.4L551.7 411.8L555.6 414.0L561.5 426.2L575.0 434.4L582.8 440.0L595.2 445.8L610.9 450.9L610.6 458.1L607.0 457.8L601.4 454.6L599.6 458.8L589.6 461.1L587.2 470.6L580.5 474.2L571.2 476.0L568.7 481.4L559.8 482.9L547.7 478.4L546.6 468.5L537.8 468.0L524.3 457.5L514.8 456.2L501.7 450.2L493.3 449.1L488.1 451.3L480.1 451.0L471.7 457.8L461.3 460.1L459.1 451.7L460.8 439.3L451.6 435.3L454.6 427.2L446.7 426.5L449.4 416.5L460.5 419.4L471.0 415.6L462.3 408.5L458.9 401.7L449.4 404.7L448.2 413.4L444.5 405.7Z"/><path d="M373.4 441.4L369.1 441.8L364.3 434.9L364.3 433.1L359.1 433.1L355.6 429.9L353.1 430.3L348.4 426.8L339.6 423.9L340.8 418.1L338.8 413.9L355.2 412.1L357.7 415.2L362.2 417.2L359.8 420.2L366.1 424.3L362.8 428.0L367.8 431.3L373.1 433.2L373.4 441.4Z"/><path d="M156.2 235.1L168.6 238.1L170.3 241.1L176.5 239.6L188.1 242.5L189.3 248.0L186.8 251.2L194.2 259.0L199.0 261.2L198.3 263.3L206.3 265.4L209.7 268.5L205.1 271.1L195.5 270.7L193.2 271.8L196.0 275.8L198.9 283.4L198.9 283.4L188.8 284.1L185.1 286.7L184.4 292.6L179.6 291.5L168.9 292.1L165.8 289.3L161.4 291.4L156.9 289.6L147.6 289.4L134.4 286.6L122.4 285.6L113.2 285.9L106.7 289.1L101.1 289.6L100.8 284.3L97.2 278.8L104.3 276.4L104.4 271.7L101.1 267.1L100.6 261.9L112.0 262.0L124.9 257.5L127.6 250.8L137.3 247.0L136.2 241.7L143.4 239.7L156.2 235.1Z"/><path d="M137.7 329.4L140.5 327.6L148.4 326.5L157.2 330.2L162.0 330.6L167.4 333.8L166.5 337.8L170.8 339.7L172.6 344.7L176.7 347.7L175.9 349.5L178.1 350.7L174.9 351.6L167.9 351.2L166.8 349.6L164.3 350.5L165.1 352.6L161.9 356.4L159.8 360.5L156.8 361.8L154.7 356.4L156.0 351.3L155.6 346.1L148.8 339.1L145.0 334.1L141.3 330.5L137.7 329.4Z"/><path d="M1119.7 685.4L1110.0 681.7L1109.6 671.5L1115.5 666.1L1128.4 662.8L1135.2 663.1L1137.9 667.6L1132.7 672.8L1129.9 679.7L1119.7 685.4Z"/><path d="M773.5 399.0L772.5 392.2L780.6 389.1L770.0 368.5L793.4 363.8L799.5 361.2L808.1 339.9L831.6 343.8L838.2 338.5L838.7 326.6L848.6 325.5L857.6 317.6L862.2 316.6L865.3 324.9L875.3 331.2L892.2 335.6L900.4 345.2L895.8 359.0L900.1 364.2L914.2 366.2L930.1 367.9L944.5 375.3L951.8 376.6L957.2 387.5L964.1 394.5L977.2 394.3L1001.7 396.9L1017.4 395.3L1029.1 397.0L1046.7 404.2L1061.0 404.2L1066.3 407.9L1080.1 401.6L1099.2 397.4L1117.0 397.0L1130.8 392.8L1139.3 386.5L1147.6 382.5L1145.7 378.6L1141.9 374.0L1148.1 366.4L1154.8 367.4L1167.0 369.8L1178.8 363.5L1196.9 358.9L1205.5 351.1L1213.9 347.7L1231.1 346.2L1240.5 347.5L1241.8 343.3L1231.0 335.0L1221.5 331.2L1212.4 335.6L1200.7 333.7L1194.0 335.2L1190.9 330.4L1199.3 318.5L1205.1 309.6L1219.3 314.1L1236.0 306.6L1235.9 301.4L1246.6 288.8L1253.2 285.0L1253.0 278.5L1246.5 275.6L1256.3 269.7L1271.1 267.6L1286.8 267.3L1304.5 270.8L1314.9 275.2L1322.2 287.1L1326.7 292.2L1330.8 299.5L1335.2 311.1L1355.8 314.9L1369.9 323.3L1374.7 334.5L1392.7 334.5L1402.9 329.8L1422.5 326.3L1416.3 337.0L1411.7 341.3L1407.6 354.3L1399.7 365.9L1385.3 363.8L1375.1 368.0L1378.2 378.1L1376.5 392.1L1370.5 392.4L1370.5 398.5L1362.9 391.5L1358.2 398.1L1339.9 403.2L1341.7 409.5L1331.5 409.0L1325.9 405.3L1317.7 413.7L1304.7 420.1L1295.0 427.7L1278.4 431.2L1269.7 436.7L1256.9 439.9L1263.2 434.4L1260.8 429.8L1270.1 421.8L1263.9 415.6L1253.6 419.8L1240.2 428.1L1232.9 435.7L1221.2 436.3L1215.2 441.8L1221.4 449.8L1231.1 451.8L1231.5 457.1L1240.9 460.6L1254.2 452.1L1264.7 456.7L1272.4 457.0L1274.3 463.3L1257.5 466.6L1252.0 473.0L1240.5 478.9L1234.4 487.2L1247.1 493.7L1251.8 505.4L1259.0 516.3L1267.1 525.4L1266.9 534.2L1259.4 537.4L1262.3 543.7L1269.2 547.4L1267.4 557.1L1264.4 566.5L1257.8 567.5L1249.1 580.4L1239.5 595.9L1228.5 610.1L1212.2 621.0L1195.7 631.0L1182.4 632.4L1175.1 637.6L1171.0 633.8L1164.3 639.7L1147.8 645.6L1135.2 647.4L1131.2 660.0L1124.6 660.7L1121.5 652.0L1124.3 647.5L1108.4 643.7L1102.8 645.6L1090.9 642.5L1085.2 637.7L1087.1 630.9L1076.3 628.7L1070.6 624.3L1060.5 630.6L1048.9 631.9L1039.5 631.9L1033.1 634.8L1027.0 636.5L1028.8 650.1L1022.5 649.8L1021.4 647.0L1021.0 642.1L1012.3 645.5L1007.2 643.3L998.4 638.9L1001.9 629.0L994.4 626.7L991.5 615.8L979.0 617.8L980.4 603.7L991.7 593.8L992.1 584.0L991.8 575.0L986.6 572.1L982.7 565.2L975.7 566.0L962.9 564.3L967.0 559.3L961.4 551.9L952.9 556.9L943.0 554.0L929.3 561.5L918.6 570.4L909.0 571.8L903.8 568.7L897.5 568.4L889.1 565.6L882.7 568.6L874.8 577.5L873.8 568.1L866.6 570.6L852.8 569.4L839.4 566.7L829.8 561.5L820.6 559.2L816.6 553.5L809.9 551.8L798.0 544.1L788.5 540.4L783.5 543.3L767.1 535.0L755.4 527.5L752.1 514.4L760.6 516.0L761.0 509.9L756.3 503.9L757.5 494.2L744.7 480.3L725.2 475.5L721.7 466.4L713.0 460.9L710.9 457.4L709.1 450.7L709.5 446.1L702.3 443.4L698.4 444.6L695.4 433.6L698.8 430.9L697.2 428.1L708.5 422.5L716.7 420.2L729.2 421.8L733.7 414.2L748.9 412.8L753.1 408.1L771.8 401.7L773.5 399.0Z"/><path d="M372.2 404.8L375.5 405.2L383.7 412.4L388.9 413.2L391.0 410.2L398.0 405.4L404.3 411.7L410.3 420.1L415.8 420.6L419.5 423.8L409.7 424.8L407.6 434.0L405.6 438.1L401.3 440.9L401.6 446.8L398.6 447.4L391.2 441.2L395.3 435.3L391.8 431.8L387.4 432.7L373.4 441.4L373.1 433.2L367.8 431.3L362.8 428.0L366.1 424.3L359.8 420.2L362.2 417.2L357.7 415.2L355.2 412.1L358.1 410.1L367.0 413.5L373.4 414.2L375.0 412.8L369.1 406.4L372.2 404.8Z"/><path d="M369.1 441.8L361.0 440.2L355.0 434.7L353.1 430.3L355.6 429.9L359.1 433.1L364.3 433.1L364.3 434.9L369.1 441.8Z"/></g>

  <!-- дуги маршрутов -->
  <g fill="none" stroke="url(#route)" stroke-width="4" stroke-linecap="round" stroke-dasharray="1 14">
    <path d="M268 240 Q462 313 669 295"/>
    <path d="M669 295 Q852 423 1067 486"/>
    <path d="M268 240 Q212 269 149 262"/>
    <path d="M268 240 Q843 196 1385 390"/>
    <path d="M1385 390 Q1369 500 1262 531"/>
  </g>

  <!-- чипы видов транспорта -->
  <g font-family="Segoe UI, Arial, sans-serif" font-size="18" font-weight="700" fill="#2b5a9e">
    <g><rect x="172" y="243" width="76" height="34" rx="17" fill="#fff" stroke="#cdddf0"/><text x="210" y="266" text-anchor="middle">road</text></g>
    <g><rect x="427" y="273" width="76" height="34" rx="17" fill="#fff" stroke="#cdddf0"/><text x="465" y="296" text-anchor="middle">rail</text></g>
    <g><rect x="1314" y="463" width="65" height="34" rx="17" fill="#fff" stroke="#cdddf0"/><text x="1346" y="486" text-anchor="middle">sea</text></g>
  </g>

  <!-- узлы направлений -->
  <g><circle cx="268" cy="240" r="17" fill="none" stroke="#2b5a9e" stroke-width="2.5" opacity=".4"/><circle cx="268" cy="240" r="9" fill="#2b5a9e"/></g>
  <g><circle cx="149" cy="262" r="17" fill="none" stroke="#2b5a9e" stroke-width="2.5" opacity=".4"/><circle cx="149" cy="262" r="9" fill="#2b5a9e"/></g>
  <g><circle cx="669" cy="295" r="17" fill="none" stroke="#2b5a9e" stroke-width="2.5" opacity=".4"/><circle cx="669" cy="295" r="9" fill="#2b5a9e"/></g>
  <g><circle cx="1067" cy="486" r="17" fill="none" stroke="#3d6fb5" stroke-width="2.5" opacity=".4"/><circle cx="1067" cy="486" r="9" fill="#3d6fb5"/></g>
  <g><circle cx="1385" cy="390" r="17" fill="none" stroke="#3d6fb5" stroke-width="2.5" opacity=".4"/><circle cx="1385" cy="390" r="9" fill="#3d6fb5"/></g>

  <!-- подписи: белая обводка, чтобы читались поверх точек -->
  <g font-family="Segoe UI, Arial, sans-serif" font-size="25" font-weight="800" fill="#14284a"
     paint-order="stroke" stroke="#fff" stroke-width="7" stroke-linejoin="round">
    <text x="268" y="208" text-anchor="middle">Russia</text>
    <text x="149" y="310" text-anchor="middle">CIS countries</text>
    <text x="669" y="343" text-anchor="middle">Kazakhstan</text>
    <text x="1067" y="536" text-anchor="middle">China and Asian countries</text>
    <text x="1385" y="358" text-anchor="middle">Sea ports</text>
  </g>
</svg>
