<svg xmlns="http://www.w3.org/2000/svg" viewBox="0 0 1600 924" role="img" aria-label="Карта направлений перевозок: Россия, Казахстан, страны СНГ, Китай и страны Азии, морские порты">
  <style><![CDATA[
    /* @media меряет ширину отрисовки SVG: на узком экране (телефон) подписи крупнее */
    .labels { font-size: 25px; }
    @media (max-width: 600px) { .labels { font-size: 48px; } }
  ]]></style>
  <defs>
    <linearGradient id="route" x1="0" y1="0" x2="1" y2="0">
      <stop offset="0" stop-color="#2b5a9e"/>
      <stop offset="1" stop-color="#3d6fb5"/>
    </linearGradient>
  </defs>

  <!-- суша: фон + страны присутствия -->
  <g fill="#e1eaf5" fill-rule="evenodd" stroke="#fff" stroke-width="1.2" stroke-linejoin="round"><path d="M341.4 195.0L327.9 202.5L321.5 204.3L324.9 191.1L314.7 183.4L302.4 189.9L298.5 203.8L291.0 211.9L282.5 207.5L272.1 208.4L263.3 198.6L258.6 203.5L253.7 204.3L252.5 216.3L237.6 213.4L235.5 223.5L227.9 223.4L222.6 236.0L214.7 255.0L202.4 278.3L205.3 283.8L202.5 290.1L194.7 289.8L189.5 304.5L190.0 324.7L195.1 332.3L192.5 349.4L185.9 359.2L182.4 367.3L177.1 358.7L161.4 374.9L150.9 378.1L139.9 371.1L137.1 355.9L134.6 322.2L141.9 312.4L162.8 299.4L178.4 283.1L192.9 260.3L212.0 227.0L225.2 213.5L247.0 190.1L264.4 181.7L277.4 182.7L289.5 166.4L303.9 167.3L318.1 163.3L342.9 177.8L332.7 183.0L341.4 195.0Z"/><path d="M144.1 488.3L147.8 491.4L159.2 493.6L155.2 501.7L154.2 510.0L152.0 512.0L148.4 510.9L148.7 513.9L142.9 520.4L142.8 525.6L146.5 523.8L149.3 528.8L148.9 532.0L151.3 536.3L148.5 539.7L150.6 548.4L154.8 549.8L153.9 554.7L146.8 560.9L131.1 557.9L119.6 561.5L118.7 568.1L109.5 569.6L100.6 564.6L97.7 567.0L83.1 562.0L80.0 557.7L84.1 551.0L85.6 528.5L77.4 516.5L71.6 510.6L59.5 506.1L58.7 497.5L68.9 495.0L82.2 498.0L79.7 484.5L87.2 489.7L105.7 480.3L108.0 470.4L115.0 467.9L116.1 472.2L119.8 472.4L123.5 477.3L129.0 483.0L133.1 482.0L140.0 487.5L141.8 488.5L144.1 488.3Z"/><path d="M164.3 566.4L169.4 562.2L170.8 571.7L168.2 580.1L164.6 577.9L162.7 570.5L164.3 566.4Z"/><path d="M378.0 670.7L376.6 673.9L373.7 672.5L372.1 679.2L374.1 680.3L372.0 681.7L371.7 684.3L375.4 682.9L375.6 686.8L371.7 702.7L370.9 700.1L366.5 685.6L366.5 685.6L366.5 685.6L368.8 682.3L368.2 681.8L370.3 677.1L371.9 669.5L373.1 666.9L373.3 666.8L375.9 666.8L376.7 665.1L378.8 664.9L378.9 669.1L377.8 670.6L378.0 670.7Z"/><path d="M378.8 664.9L376.7 665.1L375.9 666.8L373.3 666.8L376.1 658.5L380.0 651.3L380.2 651.0L383.7 651.5L385.0 655.5L380.7 659.4L378.8 664.9Z"/><path d="M375.4 682.9L371.7 684.3L372.0 681.7L374.1 680.3L372.1 679.2L373.7 672.5L376.6 673.9L376.6 680.0L375.4 682.9Z"/><path d="M376.6 673.9L378.0 670.7L386.8 674.7L402.3 663.9L405.5 676.2L404.0 677.7L388.1 682.7L396.0 692.7L393.4 694.4L392.1 697.7L386.1 699.1L384.2 702.7L380.7 705.7L371.9 704.1L371.7 702.7L375.6 686.8L375.4 682.9L376.6 680.0L376.6 673.9Z"/><path d="M503.6 753.9L505.0 753.5L505.3 756.1L511.5 754.6L518.1 754.8L522.8 755.1L528.3 748.6L534.2 742.4L539.2 736.5L540.7 739.8L541.8 747.4L537.7 747.4L537.1 753.7L538.5 755.0L534.9 756.9L534.9 760.9L532.6 764.8L532.3 768.7L530.7 770.7L506.9 765.9L503.9 756.2L503.6 753.9Z"/><path d="M497.5 749.0L497.0 742.0L499.1 736.9L501.3 735.9L503.7 738.9L503.8 744.6L502.1 750.3L499.9 750.9L497.5 749.0Z"/><path d="M475.0 698.0L476.7 702.4L476.0 704.6L478.5 712.1L472.9 712.3L471.0 707.6L463.9 706.7L469.7 697.2L475.0 698.0Z"/><path d="M405.5 676.2L402.3 663.9L419.9 653.3L422.8 640.9L422.1 633.3L426.4 630.8L430.5 624.3L433.9 622.6L443.1 624.0L445.9 626.6L449.7 624.9L454.8 637.3L460.0 640.4L460.6 646.4L456.6 649.9L454.8 657.9L460.3 667.6L470.0 673.1L474.1 680.7L472.8 688.0L475.3 688.0L475.4 693.3L479.7 698.5L475.0 698.0L469.7 697.2L463.9 706.7L449.2 705.9L426.9 685.9L415.0 678.9L405.5 676.2Z"/><path d="M532.3 768.7L532.6 764.8L534.9 760.9L534.9 756.9L538.5 755.0L537.1 753.7L537.7 747.4L541.8 747.4L545.3 754.0L549.7 757.5L555.5 758.7L560.2 760.5L563.8 765.9L565.9 769.1L568.8 770.3L568.8 772.5L565.9 778.1L564.6 780.8L561.3 783.8L558.3 790.3L554.7 789.8L553.1 792.1L551.8 796.9L552.8 803.2L552.0 804.3L548.4 804.3L543.4 807.8L542.7 812.4L540.9 814.4L535.9 814.3L532.8 816.6L532.9 820.4L529.0 823.0L524.7 822.1L519.4 825.3L515.7 825.8L513.1 819.3L506.9 803.8L530.7 794.4L536.0 775.4L532.3 768.7Z"/><path d="M540.7 739.8L539.2 736.5L541.5 733.2L542.5 734.0L541.7 738.0L540.7 739.8Z"/><path d="M907.6 867.2L905.7 856.1L910.8 848.4L921.0 846.6L928.5 847.9L935.0 851.6L938.6 845.2L945.6 848.6L947.4 854.8L946.5 865.8L933.2 872.9L936.6 878.5L928.3 879.2L921.5 882.9L914.8 881.6L911.6 876.8L907.6 867.2Z"/><path d="M928.5 847.9L921.0 846.6L910.8 848.4L905.7 856.1L907.6 867.2L900.5 863.0L893.7 863.2L894.9 855.9L887.9 856.0L887.3 866.1L883.0 879.6L880.4 887.7L881.0 894.4L886.1 894.6L889.3 903.0L890.8 910.9L895.2 916.2L900.0 917.2L904.1 922.0L901.5 925.7L896.3 926.8L895.6 922.1L889.2 918.1L887.8 919.8L884.7 916.2L883.3 911.7L879.1 906.6L875.3 902.2L874.0 907.6L872.5 902.5L873.3 896.8L875.7 888.0L879.5 878.5L883.9 869.9L880.8 861.5L880.9 857.2L880.0 852.1L874.7 844.7L872.8 840.0L875.5 838.3L878.4 830.2L875.2 824.1L870.2 817.2L866.3 809.0L869.7 807.3L873.3 797.1L878.9 796.7L883.5 792.6L888.0 790.4L891.5 793.3L891.9 799.0L897.3 799.4L895.3 809.4L895.5 817.8L903.9 812.2L906.2 813.8L910.9 813.6L912.5 810.3L918.5 810.9L924.5 818.5L925.0 827.8L931.4 835.9L931.0 843.8L928.5 847.9Z"/><path d="M945.6 848.6L938.6 845.2L935.0 851.6L928.5 847.9L931.0 843.8L931.4 835.9L925.0 827.8L924.5 818.5L918.5 810.9L912.5 810.3L910.9 813.6L906.2 813.8L903.9 812.2L895.5 817.8L895.3 809.4L897.3 799.4L891.9 799.0L891.5 793.3L888.0 790.4L889.7 786.9L896.5 780.8L897.2 783.0L901.4 783.3L900.2 772.4L904.3 771.0L908.9 778.5L912.5 787.1L922.3 787.2L925.3 795.4L920.3 797.9L918.0 801.3L927.5 806.9L934.1 818.0L939.1 826.2L945.1 832.7L947.0 839.3L945.6 848.6Z"/><path d="M888.0 790.4L883.5 792.6L878.9 796.7L873.3 797.1L869.7 807.3L866.3 809.0L870.2 817.2L875.2 824.1L878.4 830.2L875.5 838.3L872.8 840.0L874.7 844.7L880.0 852.1L880.9 857.2L880.8 861.5L883.9 869.9L879.5 878.5L875.7 888.0L874.9 881.2L877.3 874.1L874.7 868.7L875.3 858.6L872.1 853.8L869.5 842.7L868.1 830.9L864.7 823.2L859.5 827.9L850.5 834.5L846.0 833.7L841.1 831.5L843.8 820.0L842.2 811.2L836.0 800.4L836.9 797.0L832.3 795.7L826.7 788.0L826.2 780.4L828.9 781.8L829.1 775.0L833.0 772.8L832.2 768.7L834.0 765.5L834.3 755.5L840.4 757.7L844.0 749.8L844.4 745.1L848.8 737.0L848.5 731.4L858.8 724.7L864.4 726.5L863.8 720.4L866.6 718.6L866.0 714.9L870.6 714.2L873.2 720.0L876.7 722.3L876.9 729.8L876.6 737.8L869.1 745.9L868.2 757.3L876.5 755.7L878.4 764.5L883.4 766.4L881.1 774.3L887.0 777.9L890.4 779.6L896.2 776.8L896.5 780.8L889.7 786.9L888.0 790.4Z"/><path d="M921.5 882.9L928.3 879.2L936.6 878.5L933.2 872.9L946.5 865.8L947.4 854.8L945.6 848.6L947.0 839.3L945.1 832.7L939.1 826.2L934.1 818.0L927.5 806.9L918.0 801.3L920.3 797.9L925.3 795.4L922.3 787.2L912.5 787.1L908.9 778.5L904.3 771.0L908.6 768.7L914.9 768.7L922.6 767.6L929.3 762.5L933.2 766.1L940.4 767.8L939.1 773.3L942.9 777.2L950.9 779.7L940.3 787.8L933.7 796.7L932.0 803.3L938.0 813.2L945.4 825.4L952.6 831.1L957.4 838.6L961.1 855.8L960.0 872.0L953.4 878.1L944.3 884.0L937.9 891.7L928.0 900.2L925.1 894.3L927.3 888.1L921.5 882.9Z"/><path d="M1130.9 570.9L1130.9 570.9L1130.9 570.9L1130.9 570.9Z"/><path d="M1129.8 569.0L1129.8 569.0L1130.9 570.9L1127.9 570.3L1124.5 574.0L1122.1 577.7L1122.4 585.5L1118.3 587.8L1116.9 589.7L1113.9 592.9L1108.7 594.7L1105.2 597.6L1105.0 602.2L1104.0 603.3L1107.2 605.1L1111.7 609.7L1110.5 612.3L1107.2 613.0L1101.6 613.5L1098.5 618.2L1094.9 617.9L1094.5 618.8L1090.6 616.8L1089.7 618.8L1087.3 619.7L1087.1 617.7L1085.0 616.7L1082.9 615.0L1085.0 610.4L1086.9 609.2L1086.2 607.2L1088.2 601.5L1087.7 599.8L1083.1 598.6L1079.3 595.7L1085.8 588.8L1094.5 583.0L1100.0 575.3L1103.7 578.7L1110.6 579.1L1109.3 573.4L1121.6 568.7L1124.7 562.5L1129.8 569.0Z"/><path d="M1094.5 618.8L1094.9 617.9L1098.5 618.2L1101.6 613.5L1107.2 613.0L1110.5 612.3L1111.7 609.7L1118.5 622.1L1120.5 628.9L1120.5 640.8L1117.6 646.5L1110.4 648.5L1104.1 652.7L1096.9 653.6L1096.0 648.0L1097.5 640.3L1094.0 629.5L1099.9 627.8L1094.5 618.8Z"/><path d="M790.1 490.3L798.5 488.2L813.6 477.8L825.6 472.1L832.5 475.9L840.8 476.0L846.1 481.7L854.0 482.1L865.4 485.1L873.1 476.7L869.9 469.6L878.1 456.8L887.0 462.0L894.2 463.4L903.5 466.6L905.0 475.7L916.2 480.8L923.7 478.5L933.8 476.9L941.7 478.5L949.5 484.3L954.3 490.4L961.6 490.3L971.6 492.2L978.9 489.3L989.3 487.3L1000.9 478.9L1005.6 480.2L1009.8 484.2L1019.2 483.2L1015.4 492.2L1009.8 504.0L1011.8 508.8L1016.3 507.3L1024.1 509.1L1030.2 504.8L1036.6 508.5L1043.7 516.6L1042.9 520.7L1036.6 519.4L1025.1 521.0L1019.5 524.2L1013.7 531.8L1001.7 536.2L993.8 542.2L985.6 539.9L981.2 538.9L977.0 546.1L979.5 550.4L980.8 554.1L975.3 557.8L969.6 563.8L960.3 567.6L948.5 568.1L935.7 571.9L926.5 577.7L922.9 574.3L913.4 574.3L901.6 567.7L893.8 566.1L883.3 567.6L866.9 565.1L858.2 565.4L853.6 558.8L850.0 548.6L845.1 547.3L835.5 540.3L824.8 538.7L815.4 536.8L812.6 531.9L815.6 518.5L810.1 509.1L798.8 504.8L792.2 498.5L790.1 490.3Z"/><path d="M866.0 714.9L866.6 718.6L863.8 720.4L864.4 726.5L858.8 724.7L848.5 731.4L848.8 737.0L844.4 745.1L844.0 749.8L840.4 757.7L834.3 755.5L834.0 765.5L832.2 768.7L833.0 772.8L829.1 775.0L824.9 759.9L822.7 759.9L821.4 766.0L817.1 761.1L819.5 755.6L823.1 755.0L826.7 746.9L822.2 745.2L814.8 745.4L807.3 744.1L806.6 737.3L802.8 736.9L796.5 732.7L793.7 739.2L799.5 744.4L794.5 748.0L792.7 751.5L797.6 754.0L796.3 759.8L799.0 767.0L800.3 774.9L799.1 778.4L793.7 778.2L784.0 780.2L784.4 787.3L780.2 792.9L768.8 799.3L759.9 810.4L754.0 816.3L746.1 822.4L746.1 826.7L742.1 829.0L735.0 832.3L731.3 832.8L728.9 839.9L730.6 852.0L731.0 859.7L727.6 868.4L727.6 884.1L723.5 884.5L719.9 891.5L722.3 894.6L715.1 897.2L712.4 903.4L709.2 906.0L701.7 897.5L698.1 884.6L695.0 875.3L692.2 871.0L688.0 862.1L686.1 850.5L684.7 844.7L677.5 832.0L674.2 813.9L671.8 801.8L671.9 790.4L670.3 781.5L658.8 787.2L653.2 786.1L642.9 774.6L646.7 771.1L644.4 767.4L635.1 759.3L640.3 752.8L657.8 752.9L656.2 744.6L651.7 739.7L650.8 732.2L645.7 727.8L654.4 717.6L663.6 718.3L671.9 708.0L676.8 698.0L684.5 688.0L684.4 680.9L691.2 675.1L684.8 670.1L682.0 663.3L679.2 654.3L683.1 649.9L695.1 652.4L703.9 650.9L711.6 642.3L720.1 654.3L719.3 662.6L722.4 667.8L722.2 672.9L716.5 671.6L718.7 682.7L726.5 689.0L737.5 696.0L732.5 700.5L729.4 709.7L737.1 713.4L744.6 718.2L754.9 723.7L765.7 725.0L770.3 729.9L776.4 730.9L786.0 733.1L792.6 733.0L793.5 729.1L792.4 722.9L793.0 718.7L797.9 716.6L798.5 724.4L798.7 726.3L805.9 730.0L810.9 728.5L817.6 729.1L824.0 728.8L824.6 722.9L821.4 719.7L827.7 718.5L835.0 711.2L844.1 704.9L850.7 707.4L856.4 703.2L860.1 709.3L857.4 713.5L866.0 714.9Z"/><path d="M829.1 775.0L828.9 781.8L826.2 780.4L826.7 788.0L824.4 783.1L824.0 778.3L822.5 773.7L819.1 768.1L811.8 767.7L812.6 771.7L810.1 777.0L806.7 775.0L805.6 776.8L803.3 775.7L800.3 774.9L799.0 767.0L796.3 759.8L797.6 754.0L792.7 751.5L794.5 748.0L799.5 744.4L793.7 739.2L796.5 732.7L802.8 736.9L806.6 737.3L807.3 744.1L814.8 745.4L822.2 745.2L826.7 746.9L823.1 755.0L819.5 755.6L817.1 761.1L821.4 766.0L822.7 759.9L824.9 759.9L829.1 775.0Z"/><path d="M821.4 719.7L824.6 722.9L824.0 728.8L817.6 729.1L810.9 728.5L805.9 730.0L798.7 726.3L798.5 724.4L803.8 717.1L808.0 714.6L813.7 716.9L817.9 717.1L821.4 719.7Z"/><path d="M793.0 718.7L792.4 722.9L793.5 729.1L792.6 733.0L786.0 733.1L776.4 730.9L770.3 729.9L765.7 725.0L754.9 723.7L744.6 718.2L737.1 713.4L729.4 709.7L732.5 700.5L737.5 696.0L740.8 693.6L747.1 696.6L755.1 703.1L759.6 704.5L762.3 709.2L768.4 711.2L774.8 715.5L783.8 717.7L793.0 718.7Z"/><path d="M711.6 642.3L703.9 650.9L695.1 652.4L683.1 649.9L679.2 654.3L682.0 663.3L684.8 670.1L691.2 675.1L684.4 680.9L684.5 688.0L676.8 698.0L671.9 708.0L663.6 718.3L654.4 717.6L645.7 727.8L650.8 732.2L651.7 739.7L656.2 744.6L657.8 752.9L640.3 752.8L635.1 759.3L629.3 756.8L626.9 749.9L620.8 742.6L606.2 744.4L593.3 744.6L582.2 745.9L585.1 734.7L596.6 729.6L595.9 725.2L592.1 723.6L591.9 715.0L584.3 710.6L581.1 704.7L577.2 699.5L590.5 704.5L598.4 703.0L603.2 704.3L604.8 702.1L610.3 703.0L620.6 698.9L620.8 690.4L625.3 684.8L631.2 684.8L632.0 682.0L638.1 680.7L641.0 681.6L644.1 678.8L643.7 672.8L647.0 666.7L652.1 664.1L649.0 657.4L656.5 657.7L658.7 654.0L658.3 650.1L662.3 645.8L661.4 640.7L659.5 636.3L664.1 631.8L672.6 629.6L681.7 628.4L685.7 626.4L690.4 625.3L696.2 630.1L698.6 638.1L711.6 642.3Z"/><path d="M621.9 622.9L626.3 622.9L632.3 625.1L634.7 626.4L640.5 623.1L643.1 625.1L645.7 620.3L650.4 620.5L651.6 619.0L652.5 614.7L655.9 611.1L660.2 613.5L659.3 616.7L661.7 617.2L661.0 626.0L664.1 629.4L666.9 627.2L670.4 626.2L675.3 621.5L680.8 622.3L689.0 622.3L690.4 625.3L685.7 626.4L681.7 628.4L672.6 629.6L664.1 631.8L659.5 636.3L661.4 640.7L662.3 645.8L658.3 650.1L658.7 654.0L656.5 657.7L649.0 657.4L652.1 664.1L647.0 666.7L643.7 672.8L644.1 678.8L641.0 681.6L638.1 680.7L632.0 682.0L631.2 684.8L625.3 684.8L620.8 690.4L620.6 698.9L610.3 703.0L604.8 702.1L603.2 704.3L598.4 703.0L590.5 704.5L577.2 699.5L584.4 690.5L583.8 684.0L577.8 682.3L577.1 676.0L574.5 667.9L577.9 662.4L574.5 660.9L576.7 653.5L579.9 640.7L588.0 644.6L593.9 643.2L595.6 638.5L601.8 637.0L606.3 633.8L607.9 625.5L614.6 623.5L615.8 619.7L619.5 622.5L621.9 622.9Z"/><path d="M479.7 698.5L475.4 693.3L475.3 688.0L472.8 688.0L474.1 680.7L470.0 673.1L460.3 667.6L454.8 657.9L456.6 649.9L460.6 646.4L460.0 640.4L454.8 637.3L449.7 624.9L449.7 624.9L445.4 616.5L446.9 613.2L444.4 601.1L449.9 598.0L451.1 602.0L455.1 607.0L460.5 608.4L463.4 608.0L472.8 600.2L475.7 599.4L478.1 602.5L475.3 607.8L480.3 613.3L482.2 612.8L484.7 620.6L492.3 622.7L497.8 628.0L509.0 629.8L521.4 627.0L522.2 624.6L529.1 622.6L534.7 616.6L540.0 616.9L543.5 614.9L549.2 615.9L557.9 621.2L564.2 622.3L573.3 631.6L579.2 631.9L579.9 640.7L576.7 653.5L574.5 660.9L577.9 662.4L574.5 667.9L577.1 676.0L577.8 682.3L583.8 684.0L584.4 690.5L577.2 699.5L581.1 704.7L584.3 710.6L591.9 715.0L592.1 723.6L595.9 725.2L596.6 729.6L585.1 734.7L582.2 745.9L567.3 743.0L558.6 740.8L549.7 739.5L546.3 727.6L542.5 725.9L536.4 727.6L528.4 732.3L518.8 729.1L510.8 721.6L503.1 718.8L497.8 709.5L492.0 696.3L487.7 697.9L482.7 694.6L479.7 698.5Z"/><path d="M378.0 670.7L377.8 670.6L378.9 669.1L378.8 664.9L380.7 659.4L385.0 655.5L383.7 651.5L380.2 651.0L379.4 643.1L381.4 638.9L383.5 636.6L385.6 634.4L386.1 628.6L388.6 630.6L397.4 627.7L401.6 629.6L408.1 629.6L417.2 625.7L421.5 625.9L430.5 624.3L426.4 630.8L422.1 633.3L422.8 640.9L419.9 653.3L402.3 663.9L386.8 674.7L378.0 670.7Z"/><path d="M182.4 367.3L185.9 359.2L192.5 349.4L195.1 332.3L190.0 324.7L189.5 304.5L194.7 289.8L202.5 290.1L205.3 283.8L202.4 278.3L214.7 255.0L222.6 236.0L227.9 223.4L235.5 223.5L237.6 213.4L252.5 216.3L253.7 204.3L258.6 203.5L269.1 212.5L281.5 224.8L281.7 251.6L284.4 258.2L270.8 262.9L263.1 274.4L264.3 284.3L251.7 297.0L236.4 310.3L230.6 331.6L236.3 341.9L243.9 349.9L236.6 366.0L228.3 369.2L225.3 392.3L220.8 404.9L211.2 403.6L206.7 414.0L197.6 414.6L195.1 402.2L188.4 386.9L182.4 367.3Z"/><path d="M346.8 456.2L349.8 456.7L351.8 453.9L354.2 454.5L362.4 453.3L367.5 460.3L365.5 462.8L366.1 466.6L372.5 467.2L375.3 472.5L375.1 474.9L385.2 479.1L391.2 477.2L396.1 482.9L400.8 482.7L412.4 486.6L412.5 490.1L409.3 496.3L411.1 502.8L409.8 506.7L402.1 507.6L398.1 510.9L397.8 516.0L391.5 516.9L386.2 520.7L378.8 521.3L372.0 525.6L372.4 531.7L371.2 531.3L370.2 529.1L367.6 528.6L362.0 526.2L359.9 529.0L358.8 527.8L346.5 524.9L345.9 520.6L338.6 522.0L335.7 528.3L329.5 536.7L325.9 534.8L322.2 536.6L318.7 534.5L320.7 533.3L322.1 529.4L324.2 525.7L323.7 523.7L325.3 522.8L326.1 524.3L330.8 524.7L332.9 523.8L331.4 522.7L332.0 521.0L329.2 518.0L328.0 513.2L325.2 511.3L325.7 507.3L322.1 504.2L318.9 503.7L313.0 500.1L307.8 501.2L305.9 503.0L302.6 503.0L300.6 505.7L294.7 506.8L292.0 508.6L288.3 505.8L283.3 505.7L278.4 504.4L274.9 506.9L274.4 503.8L270.0 500.6L271.5 495.9L273.7 492.8L275.5 493.5L273.4 488.1L280.6 478.1L284.5 476.7L285.4 473.3L281.4 462.6L285.2 462.2L289.5 458.8L295.7 458.5L303.7 459.5L312.5 462.5L318.7 462.7L321.7 464.5L324.7 462.4L326.8 465.2L333.9 464.6L337.1 465.8L337.6 459.6L340.0 456.9L346.8 456.2Z"/><path d="M281.1 433.4L281.4 439.0L283.6 443.8L283.6 448.8L278.8 451.4L281.3 457.1L281.4 462.6L285.4 473.3L284.5 476.7L280.6 478.1L273.4 488.1L275.5 493.5L273.7 492.8L266.2 488.2L260.5 489.9L256.8 488.7L252.1 491.2L248.1 487.0L244.8 488.6L244.4 487.9L240.7 482.0L234.8 481.3L234.1 477.5L228.7 476.1L227.5 479.2L223.2 476.7L223.7 473.4L217.8 472.4L214.0 468.4L210.7 460.6L211.4 456.3L209.4 449.7L206.5 445.2L208.7 441.8L206.9 435.4L212.3 431.6L224.7 425.7L234.6 421.3L242.5 423.5L243.1 426.6L250.8 426.8L260.5 428.3L275.1 428.1L279.2 429.4L281.1 433.4Z"/><path d="M229.5 504.1L228.9 508.9L224.5 508.9L226.0 511.4L223.4 518.9L221.9 520.8L214.9 521.1L211.0 523.7L204.4 522.9L193.1 519.9L191.3 515.9L183.5 517.9L182.6 520.1L177.8 518.4L173.7 518.1L170.1 516.0L171.3 513.2L171.0 511.1L173.4 510.5L177.4 513.7L178.6 510.6L185.6 511.1L191.2 509.0L195.0 509.4L197.5 511.8L198.2 509.8L197.1 502.2L199.9 500.7L202.7 495.2L208.6 499.0L213.1 494.2L215.9 493.3L222.0 496.9L225.7 496.3L229.4 498.6L228.8 500.0L229.5 504.1Z"/><path d="M270.0 500.6L274.4 503.8L274.9 506.9L270.1 509.4L266.3 517.3L261.6 525.1L255.2 527.2L250.3 526.7L244.2 529.7L244.2 529.7L241.2 531.4L234.7 529.2L228.8 524.3L226.3 522.9L224.7 519.0L223.4 518.9L226.0 511.4L224.5 508.9L228.9 508.9L229.5 504.1L233.6 507.1L236.5 508.4L243.1 507.0L243.8 504.6L246.9 504.3L250.8 502.4L251.6 503.2L255.4 501.7L257.2 499.0L259.8 498.2L268.3 501.8L270.0 500.6Z"/><path d="M318.7 534.5L322.2 536.6L325.9 534.8L329.5 536.7L329.7 539.6L325.9 542.1L323.5 541.0L321.3 554.5L316.6 553.3L310.8 549.3L301.5 551.9L297.6 554.7L285.9 554.1L279.9 552.4L276.8 553.2L274.5 548.6L273.1 546.7L274.9 544.8L272.9 543.4L270.5 545.9L265.8 542.6L265.2 538.0L260.4 535.3L259.5 531.7L255.2 527.2L261.6 525.1L266.3 517.3L270.1 509.4L274.9 506.9L278.4 504.4L283.3 505.7L288.3 505.8L292.0 508.6L294.7 506.8L300.6 505.7L302.6 503.0L305.9 503.0L308.3 504.1L310.8 507.6L313.3 512.5L317.8 519.4L318.1 524.4L317.3 529.3L318.7 534.5Z"/><path d="M304.9 411.3L305.6 417.2L299.2 421.4L297.3 428.6L288.7 433.5L281.1 433.4L279.2 429.4L275.1 428.1L274.5 424.8L275.3 421.2L271.8 419.2L263.5 416.9L261.8 405.8L270.9 401.7L284.2 402.6L292.0 401.3L293.1 404.1L297.3 404.9L304.9 411.3Z"/><path d="M311.2 386.4L315.0 389.6L315.7 396.1L318.2 404.0L309.7 409.1L304.9 411.3L297.3 404.9L293.1 404.1L292.0 401.3L284.2 402.6L270.9 401.7L261.8 405.8L262.1 395.8L266.0 387.3L273.5 382.6L279.8 392.8L286.1 392.5L287.6 382.1L294.4 379.6L297.8 381.3L304.7 386.4L311.2 386.4Z"/><path d="M316.7 358.6L316.7 358.6L317.9 361.1L312.2 369.2L314.6 382.1L311.2 386.4L304.7 386.4L297.8 381.3L294.4 379.6L287.6 382.1L288.5 373.9L285.6 375.7L280.6 370.7L279.9 362.7L289.9 358.7L299.9 356.7L308.5 359.0L316.7 358.6L316.7 358.6Z"/><path d="M206.9 435.4L208.7 441.8L206.5 445.2L209.4 449.7L211.4 456.3L210.7 460.6L214.0 468.4L210.5 469.7L208.4 468.3L206.4 470.6L200.7 473.0L197.8 476.0L192.0 478.6L193.4 482.2L194.2 487.3L198.3 490.1L202.7 495.2L199.9 500.7L197.1 502.2L198.2 509.8L197.5 511.8L195.0 509.4L191.2 509.0L185.6 511.1L178.6 510.6L177.4 513.7L173.4 510.5L171.0 511.1L162.6 507.5L160.9 510.1L154.2 510.0L155.2 501.7L159.2 493.6L147.8 491.4L144.1 488.3L144.5 483.0L142.9 480.3L143.8 472.1L142.5 459.3L147.2 459.3L149.3 454.6L151.2 443.1L149.7 438.9L151.3 436.2L157.9 435.5L159.4 438.3L164.8 432.0L162.9 427.2L162.6 419.8L168.6 421.6L173.6 419.6L173.8 424.6L181.8 427.6L181.7 432.2L189.8 429.7L194.2 426.2L203.1 431.3L206.9 435.4Z"/><path d="M274.5 548.6L276.8 553.2L279.9 552.4L285.9 554.1L297.6 554.7L301.5 551.9L310.8 549.3L316.6 553.3L321.3 554.5L317.1 559.1L314.2 567.0L316.8 573.2L310.0 571.8L301.9 575.2L301.8 580.6L294.6 581.7L289.1 577.9L282.7 580.8L276.9 580.5L276.3 573.3L272.3 569.8L273.6 568.3L272.8 567.0L274.1 563.5L277.1 560.0L273.3 555.2L272.6 551.2L274.5 548.6Z"/><path d="M303.3 644.3L302.3 647.3L290.9 648.2L291.0 646.5L281.3 644.5L282.8 640.1L287.1 643.6L293.3 643.0L299.2 643.7L299.0 645.5L303.3 644.3Z"/><path d="M276.9 580.5L282.7 580.8L289.1 577.9L294.6 581.7L301.8 580.6L301.9 575.2L305.8 578.1L303.3 584.9L301.4 586.1L296.6 585.8L292.5 584.8L282.9 587.6L288.4 593.6L284.4 595.4L279.9 595.4L275.8 589.8L274.3 592.2L276.0 598.6L280.0 603.6L277.0 605.9L281.4 610.8L285.3 613.9L285.5 619.8L278.1 617.0L280.5 622.4L275.4 623.5L278.4 632.7L273.2 632.8L266.7 628.3L263.7 619.9L262.3 612.9L259.2 608.1L255.2 602.0L254.7 599.0L258.3 593.8L258.8 590.3L261.4 588.7L261.5 585.9L266.7 584.9L269.7 582.6L274.0 582.8L275.3 580.9L276.9 580.5Z"/><path d="M449.7 624.9L445.9 626.6L443.1 624.0L433.9 622.6L430.5 624.3L421.5 625.9L417.2 625.7L408.1 629.6L401.6 629.6L397.4 627.7L388.6 630.6L386.1 628.6L385.6 634.4L383.5 636.6L381.4 638.9L378.5 634.2L381.5 630.3L376.6 631.2L370.0 628.8L364.6 634.8L352.5 635.9L346.1 630.4L337.6 630.0L335.8 634.3L330.3 635.6L322.6 630.0L314.0 630.2L309.3 619.8L303.5 614.0L307.4 605.8L302.3 600.7L311.1 590.4L323.3 590.0L326.7 581.8L341.7 583.2L351.3 576.2L360.5 573.1L373.6 572.9L387.4 580.6L398.8 584.7L408.0 583.1L414.8 584.0L424.2 578.4L432.6 577.9L440.3 583.2L441.6 587.0L440.8 592.2L446.7 594.9L449.9 598.0L444.4 601.1L446.9 613.2L445.4 616.5L449.7 624.9L449.7 624.9Z"/><path d="M301.9 575.2L310.0 571.8L316.8 573.2L317.7 577.4L324.7 580.9L323.2 583.6L313.8 584.2L310.4 587.5L303.8 593.3L301.3 588.3L301.4 586.1L303.3 584.9L305.8 578.1L301.9 575.2Z"/><path d="M261.5 585.9L261.4 588.7L258.8 590.3L258.3 593.8L254.7 599.0L253.3 598.2L253.1 595.9L248.8 592.3L248.1 587.1L248.7 579.8L249.8 576.4L248.5 574.7L248.5 574.7L248.0 571.2L251.4 565.8L251.9 567.8L254.0 566.9L255.7 569.8L257.6 570.9L258.1 574.9L258.1 574.9L257.1 578.6L258.3 583.3L261.5 585.9Z"/><path d="M226.3 522.9L228.8 524.3L234.7 529.2L241.2 531.4L244.2 529.7L246.1 534.1L248.6 537.4L245.6 541.6L242.0 539.1L236.5 539.3L229.7 537.4L226.0 537.6L224.3 540.0L221.5 537.4L219.8 542.1L223.7 547.3L225.4 550.8L229.0 555.0L232.1 557.4L235.0 562.0L242.1 566.2L241.2 568.1L241.2 568.1L233.7 564.0L229.1 560.0L221.9 556.7L215.2 548.5L216.8 547.7L213.2 543.0L213.1 539.2L208.0 537.4L205.6 542.3L203.2 538.5L203.4 534.6L203.7 534.4L209.2 534.8L210.7 532.8L213.3 534.7L216.5 534.9L216.4 531.7L219.2 530.6L220.0 526.0L226.3 522.9Z"/><path d="M171.0 511.1L171.3 513.2L170.1 516.0L173.7 518.1L177.8 518.4L177.1 523.1L173.6 525.1L167.8 523.6L166.1 528.3L162.3 528.6L160.9 526.8L156.5 530.7L152.7 531.2L149.3 528.8L146.5 523.8L142.8 525.6L142.9 520.4L148.7 513.9L148.4 510.9L152.0 512.0L154.2 510.0L160.9 510.1L162.6 507.5L171.0 511.1Z"/><path d="M142.9 480.3L144.5 483.0L144.1 488.3L141.8 488.5L140.0 487.5L140.9 480.8L142.9 480.3Z"/><path d="M143.8 472.1L142.9 480.3L140.9 480.8L140.0 487.5L133.1 482.0L129.0 483.0L123.5 477.3L119.8 472.4L116.1 472.2L115.0 467.9L121.3 465.5L121.3 465.5L121.3 465.5L127.1 466.5L134.4 463.9L139.5 469.3L143.8 472.1Z"/><path d="M149.7 438.9L151.2 443.1L149.3 454.6L147.2 459.3L142.5 459.3L143.8 472.1L139.5 469.3L134.4 463.9L127.1 466.5L121.3 465.5L121.3 465.5L125.4 462.1L132.3 443.8L143.2 438.5L149.7 438.9Z"/><path d="M23.5 574.6L26.4 571.9L29.6 570.3L31.6 575.6L36.3 575.6L37.6 574.2L42.2 574.6L44.4 580.1L40.8 583.0L40.7 591.4L39.4 593.0L39.1 598.0L35.7 598.9L38.8 605.3L36.6 612.3L39.4 615.4L38.3 618.2L35.3 622.2L36.0 625.6L32.8 628.3L28.7 626.9L24.6 628.0L25.8 619.8L25.0 613.4L21.5 612.4L19.6 608.4L20.2 601.4L23.4 597.6L23.9 593.2L25.6 586.8L25.4 582.2L23.8 578.3L23.5 574.6Z"/><path d="M36.0 625.6L35.3 622.2L38.3 618.2L39.4 615.4L36.6 612.3L38.8 605.3L35.7 598.9L39.1 598.0L39.4 593.0L40.7 591.4L40.8 583.0L44.4 580.1L42.2 574.6L37.6 574.2L36.3 575.6L31.6 575.6L29.6 570.3L26.4 571.9L23.5 574.6L23.9 566.8L20.7 562.1L31.9 554.1L41.5 556.1L52.2 556.0L60.6 557.9L67.2 557.3L80.0 557.7L83.1 562.0L97.7 567.0L100.6 564.6L109.5 569.6L118.7 568.1L119.1 574.5L111.6 581.7L101.5 584.0L100.8 587.7L95.9 593.6L92.8 602.3L95.9 608.4L91.3 613.1L89.6 619.9L83.7 622.0L78.0 630.1L68.0 630.2L60.4 630.0L55.5 633.7L52.5 637.6L48.6 636.7L45.6 633.2L43.4 627.3L36.0 625.6Z"/><path d="M46.0 434.0L47.3 443.0L41.3 454.2L27.2 461.5L16.0 459.7L22.4 446.7L18.3 433.8L29.1 423.7L35.1 417.6L36.7 424.6L35.1 431.5L40.0 431.3L46.0 434.0Z"/><path d="M742.9 910.1L741.7 919.6L738.4 922.2L731.5 924.3L727.7 917.0L726.3 903.9L729.9 889.0L735.4 894.1L739.0 900.5L742.9 910.1Z"/><path d="M1059.6 752.5L1054.9 767.9L1051.5 775.7L1047.3 767.6L1046.4 760.6L1051.0 751.1L1057.4 743.8L1061.0 746.7L1059.6 752.5Z"/><path d="M177.8 518.4L182.6 520.1L183.5 517.9L191.3 515.9L193.1 519.9L204.4 522.9L203.5 528.5L205.4 533.3L199.1 531.7L192.7 535.7L193.1 541.3L192.2 544.5L194.8 550.2L202.2 555.8L206.2 565.0L215.0 573.8L221.2 573.7L223.1 576.2L220.9 578.3L228.0 582.2L233.8 585.5L240.6 591.1L241.4 593.1L239.9 597.0L235.6 592.0L228.7 590.2L225.3 597.1L231.1 601.1L230.1 606.6L226.8 607.3L222.6 616.3L219.3 617.1L219.3 613.9L220.9 608.3L222.6 606.0L219.6 599.8L217.1 594.4L213.8 593.1L211.5 588.5L206.4 586.5L203.0 582.2L197.1 581.5L190.9 576.5L183.7 569.4L178.3 563.1L175.8 552.1L171.9 550.8L165.5 547.2L161.8 548.7L157.2 553.8L153.9 554.7L154.8 549.8L150.6 548.4L148.5 539.7L151.3 536.3L148.9 532.0L149.3 528.8L152.7 531.2L156.5 530.7L160.9 526.8L162.3 528.6L166.1 528.3L167.8 523.6L173.6 525.1L177.1 523.1L177.8 518.4Z"/><path d="M212.0 614.7L218.0 613.7L215.1 622.0L216.3 625.3L214.7 630.6L208.6 626.7L204.6 625.6L193.5 620.2L194.6 614.9L203.9 615.8L212.0 614.7Z"/><path d="M164.0 585.3L168.0 581.9L172.8 589.6L171.6 603.7L168.0 603.1L164.8 606.6L161.8 603.8L161.5 590.9L159.7 584.7L164.0 585.3Z"/><path d="M173.6 419.6L168.6 421.6L162.6 419.8L159.4 412.6L159.1 399.0L160.4 395.4L162.7 391.4L169.7 390.5L172.5 386.8L178.9 382.9L178.6 389.9L176.2 394.3L177.2 398.1L181.5 400.1L179.5 405.2L177.2 403.7L171.5 413.2L173.6 419.6Z"/><path d="M193.0 404.8L195.6 411.4L190.8 422.0L182.5 414.6L181.4 409.1L193.0 404.8Z"/><path d="M46.0 434.0L40.0 431.3L35.1 431.5L36.7 424.6L35.1 417.6L41.7 417.1L50.2 425.1L46.0 434.0Z"/><path d="M70.5 439.8L70.6 439.8L71.7 432.5L66.4 424.5L66.3 424.4L56.7 422.1L54.8 418.6L57.7 412.7L55.1 409.1L50.8 415.3L50.3 402.6L46.3 395.8L49.2 381.7L55.4 370.5L61.7 371.6L71.2 370.4L62.8 385.4L70.9 383.5L79.5 383.6L77.5 394.6L70.3 406.6L78.5 407.4L79.2 408.8L86.2 424.2L91.6 426.3L96.5 440.9L98.8 445.8L108.4 448.2L107.4 456.2L103.4 459.8L106.5 466.2L99.4 472.6L88.8 472.5L75.3 475.8L71.6 473.4L66.4 479.1L59.1 477.7L53.5 482.3L49.3 479.9L60.9 467.2L68.0 464.5L67.9 464.5L55.6 462.5L53.3 457.5L61.6 453.7L57.3 447.0L58.8 438.7L70.5 439.8Z"/><path d="M411.5 557.5L412.5 556.2L419.2 558.1L430.8 559.9L441.6 565.2L443.0 567.2L447.8 565.5L455.2 567.8L457.6 572.3L462.6 574.8L460.6 576.3L464.5 582.2L463.4 583.5L459.1 582.9L453.2 579.7L451.3 581.5L440.3 583.2L432.6 577.9L424.2 578.4L425.4 573.7L423.4 566.3L418.8 562.2L414.4 560.9L411.5 557.5Z"/><path d="M204.4 522.9L211.0 523.7L214.9 521.1L221.9 520.8L223.4 518.9L224.7 519.0L226.3 522.9L220.0 526.0L219.2 530.6L216.4 531.7L216.5 534.9L213.3 534.7L210.7 532.8L209.2 534.8L203.7 534.4L205.4 533.3L203.5 528.5L204.4 522.9Z"/><path d="M321.5 204.3L320.4 217.1L332.5 229.0L325.2 242.2L334.4 261.5L329.1 275.6L336.2 287.6L333.0 297.9L344.7 308.5L341.7 316.3L334.3 325.0L317.4 343.8L317.4 343.8L317.4 343.8L303.0 345.0L289.1 350.3L276.2 353.3L271.6 345.5L263.9 340.7L265.7 326.1L261.9 312.5L265.6 303.6L272.8 293.7L290.9 276.4L296.2 273.0L295.4 266.0L284.4 258.2L281.7 251.6L281.5 224.8L269.1 212.5L258.6 203.5L263.3 198.6L272.1 208.4L282.5 207.5L291.0 211.9L298.5 203.8L302.4 189.9L314.7 183.4L324.9 191.1L321.5 204.3Z"/><path d="M273.7 492.8L271.5 495.9L270.0 500.6L268.3 501.8L259.8 498.2L257.2 499.0L255.4 501.7L251.6 503.2L250.8 502.4L246.9 504.3L243.8 504.6L243.1 507.0L236.5 508.4L233.6 507.1L229.5 504.1L228.8 500.0L229.4 498.6L230.5 496.0L234.0 496.2L236.7 494.9L236.9 493.8L238.5 493.3L239.0 490.6L240.8 490.0L242.0 487.9L244.4 487.9L244.8 488.6L248.1 487.0L252.1 491.2L256.8 488.7L260.5 489.9L266.2 488.2L273.7 492.8Z"/><path d="M214.0 468.4L217.8 472.4L223.7 473.4L223.2 476.7L227.5 479.2L228.7 476.1L234.1 477.5L234.8 481.3L240.7 482.0L244.4 487.9L242.0 487.9L240.8 490.0L239.0 490.6L238.5 493.3L236.9 493.8L236.7 494.9L234.0 496.2L230.5 496.0L229.4 498.6L225.7 496.3L222.0 496.9L215.9 493.3L213.1 494.2L208.6 499.0L202.7 495.2L198.3 490.1L194.2 487.3L193.4 482.2L192.0 478.6L197.8 476.0L200.7 473.0L206.4 470.6L208.4 468.3L210.5 469.7L214.0 468.4Z"/><path d="M1218.9 603.7L1211.6 614.4L1211.7 625.2L1208.7 633.5L1210.1 638.7L1206.0 645.9L1195.8 650.8L1181.9 651.4L1170.6 663.0L1165.3 659.1L1165.0 651.5L1151.2 653.7L1141.8 658.5L1132.6 658.7L1140.6 666.2L1135.3 683.3L1130.2 687.5L1126.4 683.6L1128.3 674.6L1123.3 671.7L1120.1 664.7L1127.6 661.6L1131.7 655.2L1139.7 649.9L1145.5 642.9L1161.3 639.8L1169.7 641.9L1178.0 623.5L1183.3 628.5L1194.9 618.0L1199.4 613.9L1204.4 601.0L1203.0 588.9L1206.4 582.1L1214.8 580.1L1219.1 595.0L1218.9 603.7Z"/><path d="M1240.5 551.7L1246.1 546.9L1247.9 559.5L1236.1 562.5L1229.2 573.4L1216.7 565.9L1212.4 577.9L1203.6 578.0L1202.5 567.2L1206.4 558.7L1214.9 558.0L1217.2 542.6L1219.5 533.8L1228.9 545.5L1234.9 549.3L1240.5 551.7Z"/><path d="M1143.5 663.0L1147.9 657.0L1152.4 658.1L1155.7 653.9L1161.5 656.1L1162.5 659.6L1158.0 665.7L1154.8 662.4L1150.7 664.8L1148.6 670.7L1143.5 667.8L1143.5 663.0Z"/><path d="M506.9 803.8L513.1 819.3L515.7 825.8L510.0 828.3L508.4 832.5L508.3 835.6L500.4 839.6L487.7 843.9L480.6 850.4L477.1 850.9L474.8 850.4L470.1 854.2L465.1 856.0L458.4 856.5L456.4 857.0L454.7 859.5L452.6 860.1L451.4 862.5L447.5 862.3L445.0 863.5L439.5 863.1L437.4 857.7L437.6 852.6L436.3 849.9L434.8 843.0L432.5 839.2L434.1 838.8L433.3 834.5L434.2 832.7L433.9 828.6L437.4 825.7L436.6 821.7L438.7 817.1L441.9 819.6L444.1 818.7L453.2 818.5L454.7 819.4L462.3 820.4L465.3 819.9L467.3 823.0L471.0 821.5L476.7 811.6L484.1 807.4L506.9 803.8Z"/><path d="M371.9 704.1L380.7 705.7L384.2 702.7L386.1 699.1L392.1 697.7L393.4 694.4L396.0 692.7L388.1 682.7L404.0 677.7L405.5 676.2L415.0 678.9L426.9 685.9L449.2 705.9L463.9 706.7L471.0 707.6L472.9 712.3L478.5 712.1L481.6 720.5L485.5 722.8L486.9 726.2L492.3 730.3L492.8 734.3L492.0 737.5L493.0 740.8L495.3 743.5L496.3 746.7L497.5 749.0L499.9 750.9L502.1 750.3L503.6 753.9L503.9 756.2L506.9 765.9L530.7 770.7L532.3 768.7L536.0 775.4L530.7 794.4L506.9 803.8L484.1 807.4L476.7 811.6L471.0 821.5L467.3 823.0L465.3 819.9L462.3 820.4L454.7 819.4L453.2 818.5L444.1 818.7L441.9 819.6L438.7 817.1L436.6 821.7L437.4 825.7L433.9 828.6L432.9 824.7L430.5 821.8L429.9 818.1L425.8 814.8L421.6 806.9L419.3 799.2L413.8 792.7L410.3 791.2L405.1 782.1L404.1 775.5L404.5 769.9L399.9 759.3L396.2 755.5L391.9 753.6L389.3 748.0L389.8 745.9L387.6 740.8L385.3 738.7L382.2 731.5L377.3 723.6L373.3 716.9L369.4 716.9L370.6 711.5L370.9 708.1L371.9 704.1Z"/><path d="M354.3 645.9L354.9 645.9L356.0 643.4L361.7 643.5L368.9 640.4L363.6 644.8L364.1 646.8L363.3 646.4L361.8 647.2L360.6 647.0L360.2 647.3L360.0 646.3L359.5 645.7L357.9 645.6L355.8 646.4L354.3 645.9Z"/><path d="M354.3 645.9L355.8 646.4L357.9 645.6L359.5 645.7L360.0 646.3L360.2 647.3L360.6 647.0L361.8 647.2L363.3 646.4L364.1 646.8L364.4 647.6L356.3 651.7L352.4 650.4L350.5 646.3L354.3 645.9Z"/><path d="M242.1 566.2L235.0 562.0L232.1 557.4L229.0 555.0L225.4 550.8L223.7 547.3L219.8 542.1L221.5 537.4L224.3 540.0L226.0 537.6L229.7 537.4L236.5 539.3L242.0 539.1L245.6 541.6L245.6 541.6L248.5 541.6L246.5 546.5L250.3 550.8L249.1 556.1L247.3 556.5L245.8 557.6L243.2 560.1L242.1 566.2Z"/><path d="M272.3 569.8L276.3 573.3L276.9 580.5L275.3 580.9L274.0 582.8L269.7 582.6L266.7 584.9L261.5 585.9L258.3 583.3L257.1 578.6L258.1 574.9L258.1 574.9L259.1 575.0L259.5 572.8L264.2 571.1L266.0 570.6L268.7 570.0L272.3 569.8Z"/><path d="M244.2 529.7L244.2 529.7L250.3 526.7L255.2 527.2L259.5 531.7L260.4 535.3L265.2 538.0L265.8 542.6L270.5 545.9L272.9 543.4L274.9 544.8L273.1 546.7L274.5 548.6L272.6 551.2L273.3 555.2L277.1 560.0L274.1 563.5L272.8 567.0L273.6 568.3L272.3 569.8L268.7 570.0L266.0 570.6L265.7 569.8L266.6 568.5L267.5 565.8L266.4 565.9L264.9 563.9L263.6 563.3L262.5 561.6L261.0 560.9L259.9 559.3L258.5 560.0L257.4 563.6L255.5 564.4L256.2 563.5L253.1 561.2L250.5 560.0L249.4 558.5L247.3 556.5L249.1 556.1L250.3 550.8L246.5 546.5L248.5 541.6L245.6 541.6L245.6 541.6L248.6 537.4L246.1 534.1L244.2 529.7Z"/><path d="M254.0 566.9L251.9 567.8L251.4 565.8L248.0 571.2L248.5 574.7L246.8 573.8L244.6 570.2L241.2 568.1L242.1 566.2L243.2 560.1L245.8 557.6L247.3 556.5L249.4 558.5L250.5 560.0L253.1 561.2L256.2 563.5L255.5 564.4L254.0 566.9Z"/><path d="M258.1 574.9L257.6 570.9L255.7 569.8L254.0 566.9L255.5 564.4L257.4 563.6L258.5 560.0L259.9 559.3L261.0 560.9L262.5 561.6L263.6 563.3L264.9 563.9L266.4 565.9L267.5 565.8L266.6 568.5L265.7 569.8L266.0 570.6L264.2 571.1L259.5 572.8L259.1 575.0L258.1 574.9Z"/></g>
  <g fill="#a8c4e5" fill-rule="evenodd" stroke="#fff" stroke-width="1.2" stroke-linejoin="round"><path d="M787.0 491.2L781.0 499.1L774.4 500.2L774.0 511.9L769.6 517.2L753.9 513.4L748.2 533.9L744.1 536.4L728.4 541.0L735.6 560.4L730.1 563.2L730.8 569.5L725.9 567.9L721.9 563.9L710.2 562.8L697.0 562.5L694.2 563.7L682.9 559.0L678.4 561.3L677.1 567.8L664.1 564.1L658.9 565.6L657.1 570.4L652.6 572.4L642.1 580.0L638.7 587.8L635.7 587.8L633.6 582.7L623.5 582.4L621.9 573.5L618.0 573.4L618.6 562.4L609.1 554.3L595.5 555.1L586.2 556.8L578.7 546.7L572.2 542.5L559.9 534.4L558.4 533.4L538.1 540.1L538.4 580.9L534.3 581.4L528.8 572.8L523.4 569.8L514.4 572.1L510.9 575.7L510.5 573.0L512.4 568.5L510.9 564.6L501.7 560.9L498.1 550.9L493.8 548.1L493.5 544.4L501.2 545.5L501.5 537.3L508.3 535.4L515.2 537.1L516.6 526.0L515.2 518.9L507.3 519.5L500.5 516.6L491.4 521.7L484.0 524.1L479.9 522.3L480.8 516.3L475.7 508.6L469.8 508.9L463.1 500.9L467.7 492.0L465.4 489.6L471.7 476.4L479.8 483.3L480.8 474.5L497.2 461.2L509.5 460.9L527.0 469.4L536.4 474.3L544.8 469.2L557.3 469.0L567.5 475.3L569.8 471.7L580.9 472.2L582.9 466.4L570.0 457.9L577.6 451.9L576.2 448.5L583.8 445.2L578.0 436.5L581.7 432.2L611.3 427.7L615.2 424.5L635.0 419.7L642.1 414.3L656.4 417.2L658.9 430.6L667.1 427.4L677.3 431.8L676.6 438.8L684.2 438.0L704.1 426.0L701.2 430.0L711.3 439.8L729.0 471.4L733.2 465.0L744.1 472.0L755.5 468.9L759.9 471.1L763.7 478.1L769.2 480.4L772.6 485.5L782.8 483.9L787.0 491.2Z"/><path d="M538.4 580.9L538.1 540.1L558.4 533.4L559.9 534.4L572.2 542.5L578.7 546.7L586.2 556.8L595.5 555.1L609.1 554.3L618.6 562.4L618.0 573.4L621.9 573.5L623.5 582.4L633.6 582.7L635.7 587.8L638.7 587.8L642.1 580.0L652.6 572.4L657.1 570.4L659.5 571.5L652.8 578.6L658.7 582.6L664.3 579.9L673.7 585.6L663.6 593.4L657.5 592.3L654.3 592.6L653.1 589.6L654.8 584.6L644.2 587.1L641.7 594.0L637.9 599.9L631.3 599.4L629.2 604.1L635.1 606.7L636.8 614.5L632.3 625.1L626.3 622.9L621.9 622.9L622.1 616.4L611.6 611.9L603.3 606.8L598.2 601.8L589.1 594.4L585.2 583.3L582.6 581.3L574.0 581.8L571.0 579.6L570.1 570.9L559.4 565.1L552.8 571.5L546.0 575.2L547.3 580.7L538.4 580.9Z"/><path d="M1510.7 165.0L1520.8 156.6L1520.8 170.3L1512.1 171.4L1510.7 165.0Z"/><path d="M484.0 524.1L480.4 530.9L472.7 532.8L464.8 544.4L472.0 555.0L471.2 562.5L479.9 575.4L479.9 575.4L475.1 579.8L473.8 582.6L470.3 581.8L464.8 575.2L462.6 574.8L457.6 572.3L455.2 567.8L447.8 565.5L443.0 567.2L441.6 565.2L430.8 559.9L419.2 558.1L412.5 556.2L411.5 557.5L401.4 548.1L392.4 543.9L385.5 537.3L391.3 535.5L397.9 525.9L393.5 521.4L405.1 516.7L404.9 514.1L397.8 516.0L398.1 510.9L402.1 507.6L409.8 506.7L411.1 502.8L409.3 496.3L412.5 490.1L412.4 486.6L400.8 482.7L396.1 482.9L391.2 477.2L385.2 479.1L375.1 474.9L375.3 472.5L372.5 467.2L366.1 466.6L365.5 462.8L367.5 460.3L362.4 453.3L354.2 454.5L351.8 453.9L349.8 456.7L346.8 456.2L346.8 456.2L344.9 448.2L343.0 444.0L344.5 442.8L350.9 443.3L354.0 440.5L351.7 437.1L346.4 434.9L346.9 432.6L343.6 430.3L338.7 421.8L340.4 418.3L339.6 412.2L331.9 409.0L327.7 410.6L326.6 407.3L318.2 404.0L315.7 396.1L315.0 389.6L311.2 386.4L314.6 382.1L312.2 369.2L317.9 361.1L316.7 358.6L316.7 358.6L325.7 350.7L317.4 343.8L317.4 343.8L334.3 325.0L341.7 316.3L344.7 308.5L333.0 297.9L336.2 287.6L329.1 275.6L334.4 261.5L325.2 242.2L332.5 229.0L320.4 217.1L321.5 204.3L327.9 202.5L341.4 195.0L341.4 195.0L349.6 188.4L362.6 199.9L384.3 204.3L414.2 224.9L420.3 233.3L420.8 244.8L412.0 253.8L399.1 258.3L363.7 245.4L357.9 247.6L370.8 259.9L371.3 267.7L371.8 284.3L382.0 289.1L388.2 293.2L389.2 285.5L384.5 278.6L389.5 272.5L408.7 282.6L415.3 278.6L410.0 266.7L428.5 250.2L435.8 251.2L443.2 257.1L447.8 245.4L441.2 235.1L445.1 224.5L439.2 213.3L461.4 219.2L465.9 229.2L455.9 231.4L455.9 241.1L462.2 247.0L474.4 243.2L476.3 232.1L492.9 223.7L520.5 208.1L526.5 209.0L518.7 220.0L528.5 221.9L534.2 215.8L549.0 215.3L560.8 207.7L569.8 218.7L578.8 206.6L570.5 195.7L574.7 189.5L598.1 195.2L609.0 201.1L637.7 222.0L643.0 212.5L635.0 202.8L634.7 198.8L625.2 197.0L627.8 188.0L623.6 172.8L623.3 166.4L637.9 148.0L643.1 128.7L649.0 124.4L670.0 130.1L671.7 142.0L664.1 158.8L669.1 165.2L671.6 179.0L669.8 205.1L678.6 216.3L675.2 228.3L659.6 252.9L668.7 255.4L671.8 249.3L680.6 244.9L682.7 236.3L689.5 227.9L684.9 217.7L688.6 205.7L679.9 204.1L678.0 193.7L684.4 174.3L674.1 158.0L688.2 144.1L686.4 128.9L690.4 128.4L694.5 140.3L691.4 160.2L699.9 163.9L696.3 149.2L709.5 141.0L726.0 139.9L740.6 151.8L733.6 134.3L732.8 110.9L746.5 106.3L765.6 107.3L782.8 104.3L776.3 92.2L785.5 76.5L794.6 75.9L810.0 63.6L830.9 60.3L833.5 53.3L854.3 50.9L860.8 56.7L878.6 42.9L893.1 43.4L895.3 31.9L902.9 20.2L921.6 8.7L935.2 17.8L924.4 24.7L942.3 28.8L944.5 42.1L951.7 35.6L974.9 36.0L992.7 48.8L999.1 58.4L997.1 71.4L988.3 78.6L967.5 91.8L961.6 98.7L971.4 102.0L983.1 107.7L990.3 103.4L994.3 117.9L997.8 112.1L1010.4 108.5L1035.9 112.2L1037.8 122.6L1070.9 125.9L1071.3 108.9L1088.2 112.9L1100.8 112.7L1113.6 124.4L1117.2 138.2L1112.6 147.0L1122.5 163.1L1135.0 171.2L1142.6 150.0L1155.3 159.2L1168.8 153.7L1184.1 160.0L1190.0 154.3L1202.9 157.2L1197.2 137.8L1207.7 128.5L1279.2 142.4L1285.9 154.7L1306.7 170.1L1338.7 166.4L1354.4 169.7L1361.0 177.8L1360.1 191.9L1369.8 197.3L1380.4 193.4L1394.5 192.9L1409.4 196.6L1424.4 194.6L1438.2 211.1L1448.1 205.2L1441.6 193.2L1445.2 184.7L1470.4 190.1L1486.9 189.0L1509.7 198.0L1520.8 206.1L1520.8 275.1L1520.7 275.2L1510.6 282.3L1500.3 281.1L1507.4 289.7L1512.1 302.6L1515.8 306.8L1516.7 313.1L1514.7 317.1L1499.9 313.8L1477.8 325.2L1470.7 326.9L1458.6 337.3L1447.1 346.3L1444.2 352.8L1432.9 342.8L1412.2 354.1L1408.6 348.8L1401.0 355.0L1390.4 353.0L1387.9 362.3L1378.4 375.9L1378.6 381.4L1387.7 384.5L1386.6 404.1L1379.2 404.6L1375.9 415.6L1379.1 421.2L1365.3 427.8L1362.5 442.4L1350.7 445.5L1348.4 458.1L1336.9 469.6L1334.0 461.1L1330.6 442.9L1326.2 414.4L1330.0 396.0L1336.7 387.9L1337.1 381.5L1349.4 378.5L1363.6 360.9L1377.2 346.2L1391.4 334.5L1397.8 313.4L1388.2 314.7L1383.4 327.1L1363.3 343.2L1356.9 325.1L1336.4 330.2L1316.6 354.6L1323.1 363.3L1305.4 367.0L1293.2 368.4L1293.8 358.2L1281.5 356.0L1271.6 363.0L1247.4 360.6L1221.4 364.8L1195.7 391.7L1165.4 422.9L1177.8 424.5L1181.7 432.6L1189.4 435.4L1194.5 429.0L1203.2 429.8L1214.6 443.8L1214.9 454.5L1208.7 466.8L1208.0 481.3L1204.5 500.3L1192.5 517.2L1189.9 525.2L1179.1 538.4L1168.4 551.4L1163.3 557.9L1152.8 564.4L1147.8 564.6L1142.8 559.2L1132.2 567.3L1130.9 570.9L1130.9 570.9L1130.9 570.9L1130.9 570.9L1129.8 569.0L1129.8 569.0L1129.8 563.4L1133.8 563.1L1135.0 550.0L1132.9 540.4L1139.7 536.4L1149.3 538.4L1154.6 527.3L1157.3 514.7L1160.4 510.5L1164.6 500.0L1151.5 503.4L1144.6 508.0L1132.6 508.0L1129.4 497.0L1120.0 488.5L1106.2 484.7L1103.3 472.9L1100.5 465.4L1097.5 460.1L1092.6 447.6L1085.7 442.9L1073.8 439.2L1063.3 439.5L1053.5 441.8L1046.9 448.0L1051.3 451.0L1051.4 457.9L1047.0 461.8L1039.8 474.8L1039.9 480.1L1028.7 487.7L1019.2 483.2L1009.8 484.2L1005.6 480.2L1000.9 478.9L989.3 487.3L978.9 489.3L971.6 492.2L961.6 490.3L954.3 490.4L949.5 484.3L941.7 478.5L933.8 476.9L923.7 478.5L916.2 480.8L905.0 475.7L903.5 466.6L894.2 463.4L887.0 462.0L878.1 456.8L869.9 469.6L873.1 476.7L865.4 485.1L854.0 482.1L846.1 481.7L840.8 476.0L832.5 475.9L825.6 472.1L813.6 477.8L798.5 488.2L790.1 490.3L787.0 491.2L782.8 483.9L772.6 485.5L769.2 480.4L763.7 478.1L759.9 471.1L755.5 468.9L744.1 472.0L733.2 465.0L729.0 471.4L711.3 439.8L701.2 430.0L704.1 426.0L684.2 438.0L676.6 438.8L677.3 431.8L667.1 427.4L658.9 430.6L656.4 417.2L642.1 414.3L635.0 419.7L615.2 424.5L611.3 427.7L581.7 432.2L578.0 436.5L583.8 445.2L576.2 448.5L577.6 451.9L570.0 457.9L582.9 466.4L580.9 472.2L569.8 471.7L567.5 475.3L557.3 469.0L544.8 469.2L536.4 474.3L527.0 469.4L509.5 460.9L497.2 461.2L480.8 474.5L479.8 483.3L471.7 476.4L465.4 489.6L467.7 492.0L463.1 500.9L469.8 508.9L475.7 508.6L480.8 516.3L479.9 522.3L484.0 524.1Z"/><path d="M909.6 -39.2L929.7 -21.3L927.3 -9.0L882.7 2.3L897.1 -37.6L903.7 -41.3L909.6 -39.2Z"/><path d="M1194.7 51.0L1215.6 52.1L1244.2 65.6L1238.0 83.7L1208.8 83.0L1195.7 88.7L1180.0 73.0L1184.3 55.8L1194.7 51.0Z"/><path d="M1269.1 70.9L1289.0 77.3L1279.8 86.8L1267.1 84.7L1252.4 75.2L1254.3 67.2L1269.1 70.9Z"/><path d="M1202.9 117.1L1210.4 108.2L1220.3 106.1L1231.5 114.8L1232.5 120.6L1220.5 120.7L1204.3 118.3L1202.9 117.1Z"/><path d="M275.1 428.1L260.5 428.3L250.8 426.8L252.6 421.1L263.5 416.9L271.8 419.2L275.3 421.2L274.5 424.8L275.1 428.1Z"/><path d="M518.9 108.6L537.8 88.3L535.7 77.4L553.4 64.4L579.6 48.0L605.9 43.1L619.5 33.3L634.9 29.8L640.4 40.4L635.1 48.5L607.0 61.2L582.8 73.0L558.2 95.8L546.4 117.9L534.0 138.8L535.6 156.1L550.8 172.6L546.1 174.3L520.2 171.7L518.1 162.9L503.8 157.4L502.6 146.3L510.7 141.8L510.4 130.1L526.2 111.3L518.9 108.6Z"/><path d="M1227.0 436.0L1229.8 448.2L1229.6 460.4L1232.9 472.8L1240.8 494.1L1229.1 490.1L1224.2 507.2L1231.9 519.1L1231.7 527.1L1225.7 520.2L1220.5 529.1L1219.1 519.4L1219.9 508.1L1219.0 495.5L1220.9 486.5L1221.2 470.3L1216.6 458.2L1217.3 441.1L1224.6 435.3L1221.5 429.4L1225.0 427.6L1227.0 436.0Z"/><path d="M359.9 529.0L362.0 526.2L367.6 528.6L370.2 529.1L371.2 531.3L372.4 531.7L372.4 532.7L376.3 535.4L384.4 534.7L382.8 538.8L374.2 540.7L363.4 547.2L359.0 544.9L360.8 539.6L352.1 536.3L353.5 534.2L361.1 530.4L359.9 529.0Z"/><path d="M632.3 625.1L636.8 614.5L635.1 606.7L629.2 604.1L631.3 599.4L637.9 599.9L641.7 594.0L644.2 587.1L654.8 584.6L653.1 589.6L654.3 592.6L657.5 592.3L654.6 595.6L646.0 593.8L645.3 600.0L653.9 599.2L663.6 602.6L678.6 601.0L680.6 610.9L683.2 609.8L688.0 612.2L687.8 616.3L689.0 622.3L680.8 622.3L675.3 621.5L670.4 626.2L666.9 627.2L664.1 629.4L661.0 626.0L661.7 617.2L659.3 616.7L660.2 613.5L655.9 611.1L652.5 614.7L651.6 619.0L650.4 620.5L645.7 620.3L643.1 625.1L640.5 623.1L634.7 626.4L632.3 625.1Z"/><path d="M657.1 570.4L658.9 565.6L664.1 564.1L677.1 567.8L678.4 561.3L682.9 559.0L694.2 563.7L697.0 562.5L710.2 562.8L721.9 563.9L725.9 567.9L730.8 569.5L729.7 572.0L717.2 577.9L714.4 582.2L704.2 583.5L701.2 590.4L692.8 588.9L687.3 591.0L679.8 596.1L680.9 598.6L678.6 601.0L663.6 602.6L653.9 599.2L645.3 600.0L646.0 593.8L654.6 595.6L657.5 592.3L663.6 593.4L673.7 585.6L664.3 579.9L658.7 582.6L652.8 578.6L659.5 571.5L657.1 570.4Z"/><path d="M510.9 575.7L514.4 572.1L523.4 569.8L528.8 572.8L534.3 581.4L538.4 580.9L547.3 580.7L546.0 575.2L552.8 571.5L559.4 565.1L570.1 570.9L571.0 579.6L574.0 581.8L582.6 581.3L585.2 583.3L589.1 594.4L598.2 601.8L603.3 606.8L611.6 611.9L622.1 616.4L621.9 622.9L619.5 622.5L615.8 619.7L614.6 623.5L607.9 625.5L606.3 633.8L601.8 637.0L595.6 638.5L593.9 643.2L588.0 644.6L579.9 640.7L579.2 631.9L573.3 631.6L564.2 622.3L557.9 621.2L549.2 615.9L543.5 614.9L540.0 616.9L534.7 616.6L529.1 622.6L522.2 624.6L520.7 617.2L521.8 606.1L515.7 602.5L517.7 595.2L512.4 594.6L514.2 585.5L521.6 588.2L528.6 584.7L522.8 578.2L520.6 572.0L514.2 574.8L513.4 582.7L510.9 575.7Z"/><path d="M463.4 608.0L460.5 608.4L457.3 602.2L457.3 600.6L453.8 600.6L451.5 597.7L449.9 598.0L446.7 594.9L440.8 592.2L441.6 587.0L440.3 583.2L451.3 581.5L452.9 584.4L455.9 586.2L454.3 588.9L458.5 592.6L456.3 596.0L459.7 598.9L463.2 600.7L463.4 608.0Z"/><path d="M318.2 404.0L326.6 407.3L327.7 410.6L331.9 409.0L339.6 412.2L340.4 418.3L338.7 421.8L343.6 430.3L346.9 432.6L346.4 434.9L351.7 437.1L354.0 440.5L350.9 443.3L344.5 442.8L343.0 444.0L344.9 448.2L346.8 456.2L346.8 456.2L340.0 456.9L337.6 459.6L337.1 465.8L333.9 464.6L326.8 465.2L324.7 462.4L321.7 464.5L318.7 462.7L312.5 462.5L303.7 459.5L295.7 458.5L289.5 458.8L285.2 462.2L281.4 462.6L281.3 457.1L278.8 451.4L283.6 448.8L283.6 443.8L281.4 439.0L281.1 433.4L288.7 433.5L297.3 428.6L299.2 421.4L305.6 417.2L304.9 411.3L309.7 409.1L318.2 404.0Z"/><path d="M305.9 503.0L307.8 501.2L313.0 500.1L318.9 503.7L322.1 504.2L325.7 507.3L325.2 511.3L328.0 513.2L329.2 518.0L332.0 521.0L331.4 522.7L332.9 523.8L330.8 524.7L326.1 524.3L325.3 522.8L323.7 523.7L324.2 525.7L322.1 529.4L320.7 533.3L318.7 534.5L317.3 529.3L318.1 524.4L317.8 519.4L313.3 512.5L310.8 507.6L308.3 504.1L305.9 503.0Z"/><path d="M962.2 811.3L955.7 808.4L955.5 800.3L959.4 796.1L968.0 793.4L972.6 793.6L974.3 797.2L970.9 801.4L969.0 806.8L962.2 811.3Z"/><path d="M730.8 569.5L730.1 563.2L735.6 560.4L728.4 541.0L744.1 536.4L748.2 533.9L753.9 513.4L769.6 517.2L774.0 511.9L774.4 500.2L781.0 499.1L787.0 491.2L790.1 490.3L792.2 498.5L798.8 504.8L810.1 509.1L815.6 518.5L812.6 531.9L815.4 536.8L824.8 538.7L835.5 540.3L845.1 547.3L850.0 548.6L853.6 558.8L858.2 565.4L866.9 565.1L883.3 567.6L893.8 566.1L901.6 567.7L913.4 574.3L922.9 574.3L926.5 577.7L935.7 571.9L948.5 568.1L960.3 567.6L969.6 563.8L975.3 557.8L980.8 554.1L979.5 550.4L977.0 546.1L981.2 538.9L985.6 539.9L993.8 542.2L1001.7 536.2L1013.7 531.8L1019.5 524.2L1025.1 521.0L1036.6 519.4L1042.9 520.7L1043.7 516.6L1036.6 508.5L1030.2 504.8L1024.1 509.1L1016.3 507.3L1011.8 508.8L1009.8 504.0L1015.4 492.2L1019.2 483.2L1028.7 487.7L1039.9 480.1L1039.8 474.8L1047.0 461.8L1051.4 457.9L1051.3 451.0L1046.9 448.0L1053.5 441.8L1063.3 439.5L1073.8 439.2L1085.7 442.9L1092.6 447.6L1097.5 460.1L1100.5 465.4L1103.3 472.9L1106.2 484.7L1120.0 488.5L1129.4 497.0L1132.6 508.0L1144.6 508.0L1151.5 503.4L1164.6 500.0L1160.4 510.5L1157.3 514.7L1154.6 527.3L1149.3 538.4L1139.7 536.4L1132.9 540.4L1135.0 550.0L1133.8 563.1L1129.8 563.4L1129.8 569.0L1124.7 562.5L1121.6 568.7L1109.3 573.4L1110.6 579.1L1103.7 578.7L1100.0 575.3L1094.5 583.0L1085.8 588.8L1079.3 595.7L1068.3 598.8L1062.4 603.8L1053.9 606.7L1058.1 601.8L1056.4 597.6L1062.7 590.4L1058.5 584.8L1051.6 588.6L1042.7 596.0L1037.8 602.9L1030.0 603.4L1026.0 608.4L1030.2 615.5L1036.7 617.3L1036.9 622.0L1043.2 625.0L1052.1 617.5L1059.1 621.6L1064.2 621.9L1065.5 627.4L1054.3 630.3L1050.6 635.9L1042.9 641.1L1038.8 648.3L1047.3 653.9L1050.5 663.9L1055.3 673.2L1060.7 680.9L1060.5 688.3L1055.6 691.1L1057.5 696.4L1062.1 699.4L1060.9 707.5L1058.9 715.3L1054.5 716.2L1048.7 726.8L1042.3 739.5L1034.9 751.0L1024.0 759.9L1013.0 768.0L1004.1 769.0L999.2 773.3L996.5 770.2L992.0 774.9L980.9 779.7L972.6 781.1L969.9 791.2L965.5 791.7L963.4 784.8L965.3 781.2L954.6 778.1L950.9 779.7L942.9 777.2L939.1 773.3L940.4 767.8L933.2 766.1L929.3 762.5L922.6 767.6L914.9 768.7L908.6 768.7L904.3 771.0L900.2 772.4L901.4 783.3L897.2 783.0L896.5 780.8L896.2 776.8L890.4 779.6L887.0 777.9L881.1 774.3L883.4 766.4L878.4 764.5L876.5 755.7L868.2 757.3L869.1 745.9L876.6 737.8L876.9 729.8L876.7 722.3L873.2 720.0L870.6 714.2L866.0 714.9L857.4 713.5L860.1 709.3L856.4 703.2L850.7 707.4L844.1 704.9L835.0 711.2L827.7 718.5L821.4 719.7L817.9 717.1L813.7 716.9L808.0 714.6L803.8 717.1L798.5 724.4L797.9 716.6L793.0 718.7L783.8 717.7L774.8 715.5L768.4 711.2L762.3 709.2L759.6 704.5L755.1 703.1L747.1 696.6L740.8 693.6L737.5 696.0L726.5 689.0L718.7 682.7L716.5 671.6L722.2 672.9L722.4 667.8L719.3 662.6L720.1 654.3L711.6 642.3L698.6 638.1L696.2 630.1L690.4 625.3L689.0 622.3L687.8 616.3L688.0 612.2L683.2 609.8L680.6 610.9L678.6 601.0L680.9 598.6L679.8 596.1L687.3 591.0L692.8 588.9L701.2 590.4L704.2 583.5L714.4 582.2L717.2 577.9L729.7 572.0L730.8 569.5Z"/><path d="M462.6 574.8L464.8 575.2L470.3 581.8L473.8 582.6L475.1 579.8L479.9 575.4L484.0 581.1L488.1 588.8L491.8 589.3L494.2 592.2L487.7 593.1L486.3 601.4L484.9 605.1L482.0 607.6L482.2 612.8L480.3 613.3L475.3 607.8L478.1 602.5L475.7 599.4L472.8 600.2L463.4 608.0L463.2 600.7L459.7 598.9L456.3 596.0L458.5 592.6L454.3 588.9L455.9 586.2L452.9 584.4L451.3 581.5L453.2 579.7L459.1 582.9L463.4 583.5L464.5 582.2L460.6 576.3L462.6 574.8Z"/><path d="M460.5 608.4L455.1 607.0L451.1 602.0L449.9 598.0L451.5 597.7L453.8 600.6L457.3 600.6L457.3 602.2L460.5 608.4Z"/></g>
  <g fill="#a8c4e5" fill-rule="evenodd"><path d="M1561.0 237.7L1560.3 248.4L1565.6 252.6L1563.8 240.2L1585.3 242.7L1600.8 258.7L1592.9 265.9L1580.0 267.6L1579.8 283.5L1576.6 286.8L1569.2 286.4L1563.1 280.8L1552.6 276.1L1550.8 269.0L1542.8 266.3L1533.8 268.4L1529.5 262.6L1531.2 256.4L1521.7 260.4L1525.3 268.2L1516.8 275.1L1516.8 206.1L1540.2 220.1L1561.0 237.7Z"/><path d="M1531.1 169.1L1516.8 170.3L1516.8 156.6L1521.8 155.7L1528.5 155.8L1540.0 161.6L1539.3 164.3L1531.1 169.1Z"/></g>

  <!-- дуги маршрутов -->
  <g fill="none" stroke="url(#route)" stroke-width="4" stroke-linecap="round" stroke-dasharray="1 14">
    <path d="M393 410 Q517 484 661 468"/>
    <path d="M661 468 Q774 588 927 647"/>
    <path d="M393 410 Q358 439 313 434"/>
    <path d="M393 410 Q790 368 1140 561"/>
    <path d="M1140 561 Q1149 656 1057 686"/>
  </g>

  <!-- узлы направлений -->
  <g><circle cx="393" cy="410" r="17" fill="none" stroke="#2b5a9e" stroke-width="2.5" opacity=".4"/><circle cx="393" cy="410" r="9" fill="#2b5a9e"/></g>
  <g><circle cx="313" cy="434" r="17" fill="none" stroke="#2b5a9e" stroke-width="2.5" opacity=".4"/><circle cx="313" cy="434" r="9" fill="#2b5a9e"/></g>
  <g><circle cx="661" cy="468" r="17" fill="none" stroke="#2b5a9e" stroke-width="2.5" opacity=".4"/><circle cx="661" cy="468" r="9" fill="#2b5a9e"/></g>
  <g><circle cx="927" cy="647" r="17" fill="none" stroke="#3d6fb5" stroke-width="2.5" opacity=".4"/><circle cx="927" cy="647" r="9" fill="#3d6fb5"/></g>
  <g><circle cx="1140" cy="561" r="17" fill="none" stroke="#3d6fb5" stroke-width="2.5" opacity=".4"/><circle cx="1140" cy="561" r="9" fill="#3d6fb5"/></g>

  <!-- подписи: белая обводка, чтобы читались поверх точек; класс labels — для медиазапроса -->
  <g class="labels" font-family="Segoe UI, Arial, sans-serif" font-size="25" font-weight="800" fill="#14284a"
     paint-order="stroke" stroke="#fff" stroke-width="7" stroke-linejoin="round">
    <text x="393" y="378" text-anchor="middle">Россия</text>
    <text x="313" y="482" text-anchor="middle">Страны СНГ</text>
    <text x="661" y="516" text-anchor="middle">Казахстан</text>
    <text x="927" y="697" text-anchor="middle">Китай и страны Азии</text>
    <text x="1140" y="529" text-anchor="middle">Морские порты</text>
  </g>
</svg>
