<svg xmlns="http://www.w3.org/2000/svg" viewBox="0 0 860 430" role="img" aria-label="Маршрут: Россия — Казахстан — страны Азии">
  <!-- ЗАГЛУШКА карты (русская версия). Замените на реальную карту-иллюстрацию. -->
  <defs>
    <linearGradient id="route" x1="0" y1="0" x2="1" y2="0">
      <stop offset="0" stop-color="#2b5a9e"/>
      <stop offset="1" stop-color="#3d6fb5"/>
    </linearGradient>
    <pattern id="dots" width="26" height="26" patternUnits="userSpaceOnUse">
      <circle cx="2" cy="2" r="1.6" fill="#d6e2f1"/>
    </pattern>
  </defs>

  <rect width="860" height="430" rx="14" fill="#f3f7fc"/>
  <rect width="860" height="430" rx="14" fill="url(#dots)"/>

  <!-- линия маршрута -->
  <path d="M140 150 C240 180 290 235 370 250 C470 270 520 175 600 180 C680 185 715 250 760 300"
        fill="none" stroke="url(#route)" stroke-width="3.5" stroke-linecap="round" stroke-dasharray="2 13"/>

  <!-- маркеры видов транспорта на сегментах -->
  <g font-family="Segoe UI, Arial, sans-serif" font-size="13" font-weight="700" fill="#2b5a9e" text-anchor="middle">
    <g><rect x="223" y="158" width="54" height="26" rx="13" fill="#fff" stroke="#cdddf0"/><text x="250" y="175">авто</text></g>
    <g><rect x="455" y="200" width="48" height="26" rx="13" fill="#fff" stroke="#cdddf0"/><text x="479" y="217">ж/д</text></g>
    <g><rect x="660" y="222" width="60" height="26" rx="13" fill="#fff" stroke="#cdddf0"/><text x="690" y="239">море</text></g>
  </g>

  <!-- узлы маршрута -->
  <g font-family="Segoe UI, Arial, sans-serif" font-size="16" font-weight="800" fill="#14284a" text-anchor="middle">
    <g>
      <circle cx="140" cy="150" r="16" fill="none" stroke="#2b5a9e" stroke-width="2" opacity=".4"/>
      <circle cx="140" cy="150" r="9" fill="#2b5a9e"/>
      <text x="140" y="188">Россия</text>
    </g>
    <g>
      <circle cx="370" cy="250" r="16" fill="none" stroke="#2b5a9e" stroke-width="2" opacity=".4"/>
      <circle cx="370" cy="250" r="9" fill="#2b5a9e"/>
      <text x="370" y="288">Казахстан</text>
    </g>
    <g>
      <circle cx="600" cy="180" r="16" fill="none" stroke="#2b5a9e" stroke-width="2" opacity=".4"/>
      <circle cx="600" cy="180" r="9" fill="#2b5a9e"/>
      <text x="600" y="152">Морской порт</text>
    </g>
    <g>
      <circle cx="760" cy="300" r="16" fill="none" stroke="#3d6fb5" stroke-width="2" opacity=".4"/>
      <circle cx="760" cy="300" r="9" fill="#3d6fb5"/>
      <text x="755" y="338">Страны Азии</text>
    </g>
  </g>

  <text x="40" y="50" font-family="Segoe UI, Arial, sans-serif" font-size="15" font-weight="700" fill="#5d6e88">Россия → Казахстан → страны Азии</text>
</svg>
